<?xml version="1.0" encoding="UTF-8" standalone="no"?>
<!-- Created with Inkscape (http://www.inkscape.org/) -->

<svg
   xmlns:dc="http://purl.org/dc/elements/1.1/"
   xmlns:cc="http://creativecommons.org/ns#"
   xmlns:rdf="http://www.w3.org/1999/02/22-rdf-syntax-ns#"
   xmlns:svg="http://www.w3.org/2000/svg"
   xmlns="http://www.w3.org/2000/svg"
   xmlns:xlink="http://www.w3.org/1999/xlink"
   xmlns:sodipodi="http://sodipodi.sourceforge.net/DTD/sodipodi-0.dtd"
   xmlns:inkscape="http://www.inkscape.org/namespaces/inkscape"
   width="1920"
   height="1080"
   viewBox="0 0 508.00001 285.74999"
   version="1.1"
   id="svg8"
   inkscape:version="0.92.4 (5da689c313, 2019-01-14)"
   sodipodi:docname="home-page.svg.svg">
  <defs
     id="defs2">
    <linearGradient
       inkscape:collect="always"
       id="linearGradient1620">
      <stop
         style="stop-color:#0e0b19;stop-opacity:1;"
         offset="0"
         id="stop1616" />
      <stop
         style="stop-color:#0e0b19;stop-opacity:0;"
         offset="1"
         id="stop1618" />
    </linearGradient>
    <linearGradient
       inkscape:collect="always"
       id="linearGradient1508">
      <stop
         style="stop-color:#1f2c63;stop-opacity:1"
         offset="0"
         id="stop1504" />
      <stop
         style="stop-color:#fb7e69;stop-opacity:1"
         offset="1"
         id="stop1506" />
    </linearGradient>
    <linearGradient
       inkscape:collect="always"
       id="linearGradient1053">
      <stop
         style="stop-color:#30233a;stop-opacity:1;"
         offset="0"
         id="stop1049" />
      <stop
         style="stop-color:#984646;stop-opacity:1"
         offset="1"
         id="stop1051" />
    </linearGradient>
    <linearGradient
       inkscape:collect="always"
       id="linearGradient999">
      <stop
         style="stop-color:#4a89f0;stop-opacity:1;"
         offset="0"
         id="stop995" />
      <stop
         style="stop-color:#4a89f0;stop-opacity:0;"
         offset="1"
         id="stop997" />
    </linearGradient>
    <linearGradient
       inkscape:collect="always"
       id="linearGradient991">
      <stop
         style="stop-color:#003f9f;stop-opacity:1;"
         offset="0"
         id="stop987" />
      <stop
         style="stop-color:#003f9f;stop-opacity:0.52631581"
         offset="1"
         id="stop989" />
    </linearGradient>
    <clipPath
       clipPathUnits="userSpaceOnUse"
       id="clipPath845">
      <rect
         y="402.83334"
         x="1.388879e-05"
         height="285.75"
         width="508"
         id="rect847"
         style="opacity:1;fill:#000000;fill-opacity:1;stroke:none;stroke-width:0.56757522;stroke-linecap:square;stroke-linejoin:miter;stroke-miterlimit:4;stroke-dasharray:none;stroke-opacity:1;paint-order:normal" />
    </clipPath>
    <clipPath
       clipPathUnits="userSpaceOnUse"
       id="clipPath862">
      <rect
         y="453.38486"
         x="1.388879e-05"
         height="285.75"
         width="508"
         id="rect864"
         style="opacity:1;fill:#000000;fill-opacity:1;stroke:none;stroke-width:0.56757522;stroke-linecap:square;stroke-linejoin:miter;stroke-miterlimit:4;stroke-dasharray:none;stroke-opacity:1;paint-order:normal" />
    </clipPath>
    <clipPath
       clipPathUnits="userSpaceOnUse"
       id="clipPath997">
      <circle
         r="111.49027"
         cy="-580.21411"
         cx="334.56305"
         id="circle999"
         style="opacity:1;fill:#e9dabd;fill-opacity:1;stroke:none;stroke-width:0.26458332;stroke-linecap:square;stroke-linejoin:miter;stroke-miterlimit:4;stroke-dasharray:none;stroke-opacity:1;paint-order:normal" />
    </clipPath>
    <clipPath
       clipPathUnits="userSpaceOnUse"
       id="clipPath1131">
      <rect
         y="11.250019"
         x="1.3888889e-05"
         height="285.75"
         width="508"
         id="rect1133"
         style="opacity:1;fill:#241f1c;fill-opacity:1;stroke:none;stroke-width:0.56757522;stroke-linecap:square;stroke-linejoin:miter;stroke-miterlimit:4;stroke-dasharray:none;stroke-opacity:1;paint-order:normal" />
    </clipPath>
    <radialGradient
       inkscape:collect="always"
       xlink:href="#linearGradient991"
       id="radialGradient993"
       cx="282.73108"
       cy="244.91858"
       fx="282.73108"
       fy="244.91858"
       r="358.87223"
       gradientUnits="userSpaceOnUse"
       gradientTransform="matrix(2.1180967,0.09945683,-0.08279791,1.7633174,-259.40561,-251.96729)" />
    <radialGradient
       inkscape:collect="always"
       xlink:href="#linearGradient999"
       id="radialGradient1001"
       cx="254"
       cy="445.73917"
       fx="254"
       fy="445.73917"
       r="358.87223"
       gradientUnits="userSpaceOnUse"
       gradientTransform="matrix(0.99997551,-0.00699805,0.02095263,2.9939915,-9.333186,-887.0226)" />
    <linearGradient
       inkscape:collect="always"
       xlink:href="#linearGradient1053"
       id="linearGradient1055"
       x1="890.45831"
       y1="-399.65533"
       x2="890.51025"
       y2="-330.26883"
       gradientUnits="userSpaceOnUse"
       gradientTransform="translate(-614.99488,627.26885)" />
    <linearGradient
       inkscape:collect="always"
       xlink:href="#linearGradient1508"
       id="linearGradient1510"
       x1="854.7403"
       y1="-616.15112"
       x2="857.52374"
       y2="-333.69083"
       gradientUnits="userSpaceOnUse"
       gradientTransform="translate(-614.99488,627.26885)" />
    <linearGradient
       inkscape:collect="always"
       xlink:href="#linearGradient1620"
       id="linearGradient1622"
       x1="763.00466"
       y1="-614.84332"
       x2="802.01243"
       y2="-614.84332"
       gradientUnits="userSpaceOnUse"
       gradientTransform="translate(-614.99488,627.26885)" />
    <linearGradient
       inkscape:collect="always"
       xlink:href="#linearGradient1620"
       id="linearGradient1624"
       x1="828.17202"
       y1="-603.25104"
       x2="867.17979"
       y2="-603.25104"
       gradientUnits="userSpaceOnUse"
       gradientTransform="translate(-614.99488,627.26885)" />
    <linearGradient
       inkscape:collect="always"
       xlink:href="#linearGradient1620"
       id="linearGradient1626"
       x1="948.2007"
       y1="-604.19098"
       x2="987.20848"
       y2="-604.19098"
       gradientUnits="userSpaceOnUse"
       gradientTransform="translate(-614.99488,627.26885)" />
    <linearGradient
       inkscape:collect="always"
       xlink:href="#linearGradient1620"
       id="linearGradient1630"
       x1="854.7395"
       y1="-616.28339"
       x2="941.24902"
       y2="-616.28339"
       gradientUnits="userSpaceOnUse"
       gradientTransform="translate(-614.99488,627.26885)" />
    <linearGradient
       inkscape:collect="always"
       xlink:href="#linearGradient1620"
       id="linearGradient1632"
       x1="1103.3023"
       y1="-543.40546"
       x2="1138.6328"
       y2="-543.40546"
       gradientUnits="userSpaceOnUse"
       gradientTransform="translate(-614.99488,627.26885)" />
    <linearGradient
       inkscape:collect="always"
       xlink:href="#linearGradient1620"
       id="linearGradient1634"
       x1="976.91778"
       y1="-515.71826"
       x2="991.40034"
       y2="-515.71826"
       gradientUnits="userSpaceOnUse"
       gradientTransform="translate(-614.99488,627.26885)" />
    <linearGradient
       inkscape:collect="always"
       xlink:href="#linearGradient1620"
       id="linearGradient1638"
       x1="1036.0657"
       y1="-542.40857"
       x2="1094.4347"
       y2="-542.40857"
       gradientUnits="userSpaceOnUse"
       gradientTransform="translate(-614.99488,627.26885)" />
    <linearGradient
       inkscape:collect="always"
       xlink:href="#linearGradient1620"
       id="linearGradient1640"
       x1="1000.4929"
       y1="-536.70392"
       x2="1069.9505"
       y2="-536.70392"
       gradientUnits="userSpaceOnUse"
       gradientTransform="translate(-614.99488,627.26885)" />
    <linearGradient
       inkscape:collect="always"
       xlink:href="#linearGradient1620"
       id="linearGradient1642"
       x1="805.05032"
       y1="-521.58099"
       x2="834.52341"
       y2="-521.58099"
       gradientUnits="userSpaceOnUse"
       gradientTransform="translate(-614.99488,627.26885)" />
    <linearGradient
       inkscape:collect="always"
       xlink:href="#linearGradient1620"
       id="linearGradient1644"
       x1="781.41937"
       y1="-497.8317"
       x2="834.18659"
       y2="-497.8317"
       gradientUnits="userSpaceOnUse"
       gradientTransform="translate(-614.99488,627.26885)" />
    <linearGradient
       inkscape:collect="always"
       xlink:href="#linearGradient1620"
       id="linearGradient1646"
       x1="800.22078"
       y1="-470.68506"
       x2="869.67839"
       y2="-470.68506"
       gradientUnits="userSpaceOnUse"
       gradientTransform="translate(-614.99488,627.26885)" />
    <linearGradient
       inkscape:collect="always"
       xlink:href="#linearGradient1620"
       id="linearGradient1648"
       x1="762.24518"
       y1="-472.67889"
       x2="814.90838"
       y2="-472.67889"
       gradientUnits="userSpaceOnUse"
       gradientTransform="translate(-614.99488,627.26885)" />
    <linearGradient
       inkscape:collect="always"
       xlink:href="#linearGradient1620"
       id="linearGradient1654"
       x1="705.116"
       y1="-468.87585"
       x2="779.91724"
       y2="-472.17166"
       gradientUnits="userSpaceOnUse"
       gradientTransform="translate(-614.99488,627.26885)" />
    <linearGradient
       inkscape:collect="always"
       xlink:href="#linearGradient1620"
       id="linearGradient1656"
       x1="686.14909"
       y1="-463.24255"
       x2="723.01669"
       y2="-463.24255"
       gradientUnits="userSpaceOnUse"
       gradientTransform="translate(-614.99488,627.26885)" />
    <linearGradient
       inkscape:collect="always"
       xlink:href="#linearGradient1620"
       id="linearGradient1662"
       x1="665.73978"
       y1="-502.4761"
       x2="696.32516"
       y2="-502.4761"
       gradientUnits="userSpaceOnUse"
       gradientTransform="translate(-614.99488,627.26885)" />
    <linearGradient
       inkscape:collect="always"
       xlink:href="#linearGradient1620"
       id="linearGradient1664"
       x1="637.17423"
       y1="-494.88013"
       x2="704.58289"
       y2="-481.67636"
       gradientUnits="userSpaceOnUse"
       gradientTransform="translate(-614.99488,627.26885)" />
    <linearGradient
       inkscape:collect="always"
       xlink:href="#linearGradient1620"
       id="linearGradient1666"
       x1="606.06295"
       y1="-492.40857"
       x2="651.80545"
       y2="-492.40857"
       gradientUnits="userSpaceOnUse"
       gradientTransform="translate(-614.99488,627.26885)" />
    <linearGradient
       inkscape:collect="always"
       xlink:href="#linearGradient1508"
       id="linearGradient1267"
       gradientUnits="userSpaceOnUse"
       gradientTransform="translate(86.843674,627.26885)"
       x1="854.7403"
       y1="-616.15112"
       x2="857.52374"
       y2="-333.69083" />
    <linearGradient
       inkscape:collect="always"
       xlink:href="#linearGradient1620"
       id="linearGradient1269"
       gradientUnits="userSpaceOnUse"
       gradientTransform="translate(-614.99488,627.26885)"
       x1="606.06295"
       y1="-492.40857"
       x2="651.80545"
       y2="-492.40857" />
    <linearGradient
       inkscape:collect="always"
       xlink:href="#linearGradient1620"
       id="linearGradient1271"
       gradientUnits="userSpaceOnUse"
       gradientTransform="translate(-614.99488,627.26885)"
       x1="637.17423"
       y1="-494.88013"
       x2="704.58289"
       y2="-481.67636" />
    <linearGradient
       inkscape:collect="always"
       xlink:href="#linearGradient1620"
       id="linearGradient1273"
       gradientUnits="userSpaceOnUse"
       gradientTransform="translate(-614.99488,627.26885)"
       x1="665.73978"
       y1="-502.4761"
       x2="696.32516"
       y2="-502.4761" />
    <linearGradient
       inkscape:collect="always"
       xlink:href="#linearGradient1620"
       id="linearGradient1275"
       gradientUnits="userSpaceOnUse"
       gradientTransform="translate(-614.99488,627.26885)"
       x1="686.14909"
       y1="-463.24255"
       x2="723.01669"
       y2="-463.24255" />
    <linearGradient
       inkscape:collect="always"
       xlink:href="#linearGradient1620"
       id="linearGradient1277"
       gradientUnits="userSpaceOnUse"
       gradientTransform="translate(-614.99488,627.26885)"
       x1="705.116"
       y1="-468.87585"
       x2="779.91724"
       y2="-472.17166" />
    <linearGradient
       inkscape:collect="always"
       xlink:href="#linearGradient1620"
       id="linearGradient1279"
       gradientUnits="userSpaceOnUse"
       gradientTransform="translate(-614.99488,627.26885)"
       x1="762.24518"
       y1="-472.67889"
       x2="814.90838"
       y2="-472.67889" />
    <linearGradient
       inkscape:collect="always"
       xlink:href="#linearGradient1620"
       id="linearGradient1281"
       gradientUnits="userSpaceOnUse"
       gradientTransform="translate(-614.99488,627.26885)"
       x1="800.22078"
       y1="-470.68506"
       x2="869.67839"
       y2="-470.68506" />
    <linearGradient
       inkscape:collect="always"
       xlink:href="#linearGradient1620"
       id="linearGradient1283"
       gradientUnits="userSpaceOnUse"
       gradientTransform="translate(-614.99488,627.26885)"
       x1="781.41937"
       y1="-497.8317"
       x2="834.18659"
       y2="-497.8317" />
    <linearGradient
       inkscape:collect="always"
       xlink:href="#linearGradient1620"
       id="linearGradient1285"
       gradientUnits="userSpaceOnUse"
       gradientTransform="translate(-614.99488,627.26885)"
       x1="805.05032"
       y1="-521.58099"
       x2="834.52341"
       y2="-521.58099" />
    <linearGradient
       inkscape:collect="always"
       xlink:href="#linearGradient1620"
       id="linearGradient1287"
       gradientUnits="userSpaceOnUse"
       gradientTransform="translate(-614.99488,627.26885)"
       x1="1000.4929"
       y1="-536.70392"
       x2="1069.9505"
       y2="-536.70392" />
    <linearGradient
       inkscape:collect="always"
       xlink:href="#linearGradient1620"
       id="linearGradient1289"
       gradientUnits="userSpaceOnUse"
       gradientTransform="translate(-614.99488,627.26885)"
       x1="1036.0657"
       y1="-542.40857"
       x2="1094.4347"
       y2="-542.40857" />
    <linearGradient
       inkscape:collect="always"
       xlink:href="#linearGradient1620"
       id="linearGradient1291"
       gradientUnits="userSpaceOnUse"
       gradientTransform="translate(-614.99488,627.26885)"
       x1="976.91778"
       y1="-515.71826"
       x2="991.40034"
       y2="-515.71826" />
    <linearGradient
       inkscape:collect="always"
       xlink:href="#linearGradient1620"
       id="linearGradient1293"
       gradientUnits="userSpaceOnUse"
       gradientTransform="translate(-614.99488,627.26885)"
       x1="1103.3023"
       y1="-543.40546"
       x2="1138.6328"
       y2="-543.40546" />
    <linearGradient
       inkscape:collect="always"
       xlink:href="#linearGradient1620"
       id="linearGradient1295"
       gradientUnits="userSpaceOnUse"
       gradientTransform="translate(-614.99488,627.26885)"
       x1="854.7395"
       y1="-616.28339"
       x2="941.24902"
       y2="-616.28339" />
    <linearGradient
       inkscape:collect="always"
       xlink:href="#linearGradient1620"
       id="linearGradient1297"
       gradientUnits="userSpaceOnUse"
       gradientTransform="translate(-614.99488,627.26885)"
       x1="948.2007"
       y1="-604.19098"
       x2="987.20848"
       y2="-604.19098" />
    <linearGradient
       inkscape:collect="always"
       xlink:href="#linearGradient1620"
       id="linearGradient1299"
       gradientUnits="userSpaceOnUse"
       gradientTransform="translate(-614.99488,627.26885)"
       x1="828.17202"
       y1="-603.25104"
       x2="867.17979"
       y2="-603.25104" />
    <linearGradient
       inkscape:collect="always"
       xlink:href="#linearGradient1620"
       id="linearGradient1301"
       gradientUnits="userSpaceOnUse"
       gradientTransform="translate(-614.99488,627.26885)"
       x1="763.00466"
       y1="-614.84332"
       x2="802.01243"
       y2="-614.84332" />
    <linearGradient
       inkscape:collect="always"
       xlink:href="#linearGradient1053"
       id="linearGradient1303"
       gradientUnits="userSpaceOnUse"
       gradientTransform="translate(86.843674,627.26885)"
       x1="890.45831"
       y1="-399.65533"
       x2="890.51025"
       y2="-330.26883" />
    <linearGradient
       inkscape:collect="always"
       xlink:href="#linearGradient1508"
       id="linearGradient1430"
       gradientUnits="userSpaceOnUse"
       gradientTransform="translate(663.3245,627.26885)"
       x1="854.7403"
       y1="-616.15112"
       x2="857.52374"
       y2="-333.69083" />
    <linearGradient
       inkscape:collect="always"
       xlink:href="#linearGradient1053"
       id="linearGradient1466"
       gradientUnits="userSpaceOnUse"
       gradientTransform="translate(663.3245,627.26885)"
       x1="890.45831"
       y1="-399.65533"
       x2="890.51025"
       y2="-330.26883" />
  </defs>
  <sodipodi:namedview
     id="base"
     pagecolor="#ffffff"
     bordercolor="#666666"
     borderopacity="1.0"
     inkscape:pageopacity="0.0"
     inkscape:pageshadow="2"
     inkscape:zoom="0.21112295"
     inkscape:cx="5647.3782"
     inkscape:cy="469.98805"
     inkscape:document-units="mm"
     inkscape:current-layer="layer1"
     showgrid="false"
     inkscape:window-width="958"
     inkscape:window-height="1008"
     inkscape:window-x="953"
     inkscape:window-y="0"
     inkscape:window-maximized="0"
     units="px"
     inkscape:showpageshadow="true"
     borderlayer="false"
     inkscape:pagecheckerboard="false"
     inkscape:snap-page="true"
     showguides="true"
     inkscape:guide-bbox="true"
     inkscape:snap-bbox="true"
     inkscape:bbox-paths="true"
     inkscape:bbox-nodes="true"
     inkscape:snap-bbox-edge-midpoints="true"
     inkscape:snap-bbox-midpoints="true"
     inkscape:snap-intersection-paths="true"
     inkscape:object-paths="true"
     inkscape:snap-smooth-nodes="true"
     inkscape:snap-midpoints="true"
     inkscape:snap-object-midpoints="true"
     inkscape:snap-center="true"
     inkscape:snap-nodes="true"
     inkscape:snap-others="true" />
  <metadata
     id="metadata5">
    <rdf:RDF>
      <cc:Work
         rdf:about="">
        <dc:format>image/svg+xml</dc:format>
        <dc:type
           rdf:resource="http://purl.org/dc/dcmitype/StillImage" />
        <dc:title></dc:title>
      </cc:Work>
    </rdf:RDF>
  </metadata>
  <g
     inkscape:label="Livello 1"
     inkscape:groupmode="layer"
     id="layer1"
     transform="translate(0,-11.25001)">
    <path
       style="fill:url(#linearGradient1510);fill-opacity:1;stroke:#000000;stroke-width:0.26458332px;stroke-linecap:butt;stroke-linejoin:miter;stroke-opacity:1"
       d="M -1.0617936e-6,11.117728 V 296.86772 H 508.00002 V 11.117728 Z"
       id="path1502"
       inkscape:connector-curvature="0" />
    <circle
       style="opacity:1;fill:#fdf7bc;fill-opacity:1;stroke:none;stroke-width:0.62746823;stroke-linecap:round;stroke-linejoin:round;stroke-miterlimit:4;stroke-dasharray:none;stroke-opacity:0.52631579;paint-order:stroke fill markers"
       id="path1683"
       cx="390.72314"
       cy="222.97809"
       r="46.829723" />
    <path
       inkscape:connector-curvature="0"
       id="path1035"
       d="M 1.8938206e-5,11.117728 V 296.86773 H 508.00002 V 11.117728 Z"
       style="fill:none;stroke:#000000;stroke-width:0.26458332px;stroke-linecap:butt;stroke-linejoin:miter;stroke-opacity:1" />
    <g
       id="g1112"
       transform="translate(0,-10.099565)">
      <path
         inkscape:connector-curvature="0"
         id="path1057"
         d="m 13.939339,111.98925 a 22.87125,22.87125 0 0 0 -22.8714602,22.87095 22.87125,22.87125 0 0 0 3.1941001,11.60447 22.187282,22.187282 0 0 0 -1.8060701,8.75295 22.187282,22.187282 0 0 0 22.1872702,22.18727 22.187282,22.187282 0 0 0 22.18727,-22.18727 22.187282,22.187282 0 0 0 -2.45774,-10.14098 22.87125,22.87125 0 0 0 2.43811,-10.21644 22.87125,22.87125 0 0 0 -22.87148,-22.87095 z"
         style="opacity:1;fill:url(#linearGradient1666);fill-opacity:1;stroke:none;stroke-width:1.32291663;stroke-linecap:round;stroke-linejoin:round;stroke-miterlimit:4;stroke-dasharray:none;stroke-opacity:0.52631579;paint-order:stroke fill markers" />
      <path
         inkscape:connector-curvature="0"
         id="circle1059"
         d="m 37.472279,117.09592 a 15.292693,15.292693 0 0 0 -15.29313,15.2926 15.292693,15.292693 0 0 0 8.06823,13.47256 30.585391,30.585391 0 0 0 -2.71454,12.53206 30.585391,30.585391 0 0 0 30.58519,30.5852 30.585391,30.585391 0 0 0 30.585226,-30.5852 30.585391,30.585391 0 0 0 -30.585226,-30.58572 30.585391,30.585391 0 0 0 -5.88645,0.59994 15.292693,15.292693 0 0 0 -14.7593,-11.31144 z"
         style="opacity:1;fill:url(#linearGradient1664);fill-opacity:1;stroke:none;stroke-width:0.8845585;stroke-linecap:round;stroke-linejoin:round;stroke-miterlimit:4;stroke-dasharray:none;stroke-opacity:0.52631579;paint-order:stroke fill markers" />
      <circle
         r="15.292693"
         cy="124.79275"
         cx="66.037598"
         id="circle1061"
         style="opacity:1;fill:url(#linearGradient1662);fill-opacity:1;stroke:none;stroke-width:0.8845585;stroke-linecap:round;stroke-linejoin:round;stroke-miterlimit:4;stroke-dasharray:none;stroke-opacity:0.52631579;paint-order:stroke fill markers" />
      <circle
         style="opacity:1;fill:url(#linearGradient1656);fill-opacity:1;stroke:none;stroke-width:1.06624603;stroke-linecap:round;stroke-linejoin:round;stroke-miterlimit:4;stroke-dasharray:none;stroke-opacity:0.52631579;paint-order:stroke fill markers"
         id="circle1067"
         cx="89.588013"
         cy="164.02629"
         r="18.4338" />
      <path
         inkscape:connector-curvature="0"
         id="circle1069"
         d="m 146.48886,136.66321 a 18.433799,18.433799 0 0 0 -15.92565,9.18599 18.433799,18.433799 0 0 0 -3.04114,-0.25683 18.433799,18.433799 0 0 0 -5.07413,0.71934 18.433799,18.433799 0 0 0 -13.89319,-6.35259 18.433799,18.433799 0 0 0 -18.433485,18.43402 18.433799,18.433799 0 0 0 18.433485,18.4335 18.433799,18.433799 0 0 0 5.0741,-0.71935 18.433799,18.433799 0 0 0 13.89322,6.35259 18.433799,18.433799 0 0 0 15.92873,-9.20202 18.433799,18.433799 0 0 0 3.03806,0.27286 18.433799,18.433799 0 0 0 18.43352,-18.43352 18.433799,18.433799 0 0 0 -18.43352,-18.43399 z"
         style="opacity:1;fill:url(#linearGradient1654);fill-opacity:1;stroke:none;stroke-width:1.06624603;stroke-linecap:round;stroke-linejoin:round;stroke-miterlimit:4;stroke-dasharray:none;stroke-opacity:0.52631579;paint-order:stroke fill markers" />
      <circle
         style="opacity:1;fill:url(#linearGradient1648);fill-opacity:1;stroke:none;stroke-width:1.5230701;stroke-linecap:round;stroke-linejoin:round;stroke-miterlimit:4;stroke-dasharray:none;stroke-opacity:0.52631579;paint-order:stroke fill markers"
         id="circle1076"
         cx="173.58191"
         cy="154.58995"
         r="26.331602" />
      <circle
         r="34.728806"
         cy="156.58379"
         cx="219.95471"
         id="circle1078"
         style="opacity:1;fill:url(#linearGradient1646);fill-opacity:1;stroke:none;stroke-width:2.00878024;stroke-linecap:round;stroke-linejoin:round;stroke-miterlimit:4;stroke-dasharray:none;stroke-opacity:0.52631579;paint-order:stroke fill markers" />
      <circle
         style="opacity:1;fill:url(#linearGradient1644);fill-opacity:1;stroke:none;stroke-width:1.52607834;stroke-linecap:round;stroke-linejoin:round;stroke-miterlimit:4;stroke-dasharray:none;stroke-opacity:0.52631579;paint-order:stroke fill markers"
         id="circle1080"
         cx="192.80811"
         cy="129.43715"
         r="26.383612" />
      <circle
         r="14.736547"
         cy="105.68786"
         cx="204.79199"
         id="circle1082"
         style="opacity:1;fill:url(#linearGradient1642);fill-opacity:1;stroke:none;stroke-width:0.85238993;stroke-linecap:round;stroke-linejoin:round;stroke-miterlimit:4;stroke-dasharray:none;stroke-opacity:0.52631579;paint-order:stroke fill markers" />
      <path
         inkscape:connector-curvature="0"
         id="circle1084"
         d="m 420.22662,55.836098 a 34.728806,34.728806 0 0 0 -34.7286,34.72862 12.462618,12.462618 0 0 0 -12.46278,12.462802 12.462618,12.462618 0 0 0 12.46278,12.4628 12.462618,12.462618 0 0 0 7.9375,-2.86803 34.728806,34.728806 0 0 0 26.7911,12.67159 34.728806,34.728806 0 0 0 34.7292,-34.729162 34.728806,34.728806 0 0 0 -34.7292,-34.72862 z"
         style="opacity:1;fill:url(#linearGradient1640);fill-opacity:1;stroke:none;stroke-width:2.00878024;stroke-linecap:round;stroke-linejoin:round;stroke-miterlimit:4;stroke-dasharray:none;stroke-opacity:0.52631579;paint-order:stroke fill markers" />
      <circle
         r="29.184498"
         cy="84.860283"
         cx="450.25537"
         id="circle1086"
         style="opacity:1;fill:url(#linearGradient1638);fill-opacity:1;stroke:none;stroke-width:1.68808699;stroke-linecap:round;stroke-linejoin:round;stroke-miterlimit:4;stroke-dasharray:none;stroke-opacity:0.52631579;paint-order:stroke fill markers" />
      <circle
         r="7.2412801"
         cy="111.55059"
         cx="369.16418"
         id="circle1090"
         style="opacity:1;fill:url(#linearGradient1634);fill-opacity:1;stroke:none;stroke-width:0.41884944;stroke-linecap:round;stroke-linejoin:round;stroke-miterlimit:4;stroke-dasharray:none;stroke-opacity:0.52631579;paint-order:stroke fill markers" />
      <circle
         style="opacity:1;fill:url(#linearGradient1632);fill-opacity:1;stroke:none;stroke-width:1.02179217;stroke-linecap:round;stroke-linejoin:round;stroke-miterlimit:4;stroke-dasharray:none;stroke-opacity:0.52631579;paint-order:stroke fill markers"
         id="circle1092"
         cx="505.97266"
         cy="83.863396"
         r="17.665258" />
      <path
         inkscape:connector-curvature="0"
         id="circle1094"
         d="m 282.99938,-32.269124 a 43.25476,43.25476 0 0 0 -43.25472,43.254722 43.25476,43.25476 0 0 0 43.25472,43.25471 43.25476,43.25476 0 0 0 7.26935,-0.6196 43.25476,43.25476 0 0 0 6.98611,0.6196 43.25476,43.25476 0 0 0 43.25474,-43.25471 43.25476,43.25476 0 0 0 -43.25474,-43.254722 43.25476,43.25476 0 0 0 -7.26829,0.619072 43.25476,43.25476 0 0 0 -6.98717,-0.619072 z"
         style="opacity:1;fill:url(#linearGradient1630);fill-opacity:1;stroke:none;stroke-width:2.50193787;stroke-linecap:round;stroke-linejoin:round;stroke-miterlimit:4;stroke-dasharray:none;stroke-opacity:0.52631579;paint-order:stroke fill markers" />
      <circle
         r="19.503885"
         cy="23.077866"
         cx="352.70972"
         id="circle1098"
         style="opacity:1;fill:url(#linearGradient1626);fill-opacity:1;stroke:none;stroke-width:1.12814188;stroke-linecap:round;stroke-linejoin:round;stroke-miterlimit:4;stroke-dasharray:none;stroke-opacity:0.52631579;paint-order:stroke fill markers" />
      <circle
         style="opacity:1;fill:url(#linearGradient1624);fill-opacity:1;stroke:none;stroke-width:1.12814188;stroke-linecap:round;stroke-linejoin:round;stroke-miterlimit:4;stroke-dasharray:none;stroke-opacity:0.52631579;paint-order:stroke fill markers"
         id="circle1100"
         cx="232.68103"
         cy="24.017822"
         r="19.503885" />
      <circle
         r="19.503885"
         cy="12.425529"
         cx="167.51367"
         id="circle1102"
         style="opacity:1;fill:url(#linearGradient1622);fill-opacity:1;stroke:none;stroke-width:1.12814188;stroke-linecap:round;stroke-linejoin:round;stroke-miterlimit:4;stroke-dasharray:none;stroke-opacity:0.52631579;paint-order:stroke fill markers" />
    </g>
    <ellipse
       style="opacity:1;fill:url(#radialGradient1001);fill-opacity:1;stroke:url(#radialGradient993);stroke-width:105.83333588;stroke-linecap:round;stroke-linejoin:round;stroke-miterlimit:4;stroke-dasharray:none;stroke-opacity:1;paint-order:stroke fill markers"
       id="path983"
       cx="254"
       cy="445.73917"
       r="305.95557" />
    <path
       sodipodi:nodetypes="ccccc"
       inkscape:connector-curvature="0"
       id="path1037"
       d="M 1.8938206e-5,233.28576 C 157.82656,226.6451 338.66669,229.59343 508.00002,227.74726 v 69.12047 H 1.8938206e-5 Z"
       style="fill:url(#linearGradient1055);fill-opacity:1;stroke:none;stroke-width:0.26458332px;stroke-linecap:butt;stroke-linejoin:miter;stroke-opacity:1" />
    <path
       sodipodi:nodetypes="ccccc"
       inkscape:connector-curvature="0"
       id="path1039"
       d="M 1.8938206e-5,249.87201 C 161.94555,252.0036 337.31641,266.39308 508.00002,276.50291 v 20.36482 H 1.8938206e-5 Z"
       style="fill:#000000;fill-opacity:1;stroke:none;stroke-width:0.26458332px;stroke-linecap:butt;stroke-linejoin:miter;stroke-opacity:1" />
    <path
       sodipodi:nodetypes="cccccc"
       inkscape:connector-curvature="0"
       id="path1041"
       d="M 1.8938206e-5,249.87201 254.00002,274.36354 c 39.53434,3.91647 49.50095,6.5297 2.65848,15.92479 l -28.2593,6.5794 H 1.8938206e-5 Z"
       style="fill:#000000;fill-opacity:1;stroke:none;stroke-width:0.26458332px;stroke-linecap:butt;stroke-linejoin:miter;stroke-opacity:1" />
    <path
       sodipodi:nodetypes="ccccccccccccccccccccccccccccccccccccccccccc"
       inkscape:connector-curvature="0"
       id="path1043"
       d="m 189.19512,273.16295 c -0.46487,-5.52688 -1.06732,-11.05375 -2.05164,-16.58063 -1.82957,-7.56404 -3.78393,-14.50407 -5.42669,-23.00216 -3.46492,-5.86543 -4.05821,-12.55132 -5.63948,-18.95494 -3.51125,-9.21489 -4.73227,-18.17531 -7.04936,-27.25752 -3.27948,-7.47886 -3.9582,-13.96808 -5.41958,-21.62753 l -6.1727,-27.87463 c -0.68603,-5.12777 -1.28039,-10.31667 -1.52692,-15.73744 l -4.48619,-25.698642 c 4.02693,7.362592 6.73243,15.291502 8.69544,23.538622 l 4.37542,18.33243 2.71386,11.57546 7.08928,32.51099 c 1.90224,7.42797 3.05154,14.60496 6.14774,22.43092 1.09535,4.03076 2.77546,8.64627 3.21232,12.01854 7.43611,18.06388 10.36312,35.59498 18.99705,54.66498 h 2.65848 c 2.53202,-4.48322 4.70677,-8.96643 8.63729,-13.44965 2.29249,-3.7097 3.69562,-8.27959 7.03667,-10.97513 8.01735,-17.71866 11.81999,-33.95655 20.49244,-53.77882 3.63608,-10.17325 7.2949,-20.32375 11.077,-30.35097 -0.56224,-2.19431 1.21947,-4.60171 2.12209,-6.92919 -0.60169,-1.7891 0.1964,-3.57631 0.99866,-5.28702 -0.30959,-1.18208 -0.86624,-2.25828 -0.70493,-3.64217 -0.87303,-1.84347 -1.34333,-3.85366 -0.97135,-6.21254 -0.7904,-2.83097 -2.24877,-5.76471 0.63247,-8.03082 0.63927,-0.36991 0.90427,-1.01645 3.15694,-0.19385 1.82276,-5.36426 5.48832,-2.28234 9.02776,0.22154 1.6359,1.24335 3.03713,2.54536 3.21233,4.15388 0.40096,1.42155 1.04347,2.84309 0.60923,4.26464 -1.81582,1.28782 -3.63336,2.57343 -5.95389,3.21233 2.53229,1.56942 -0.50282,2.94797 -1.88309,3.48925 -0.52521,1.31953 0.0335,2.24942 -1.4677,2.04925 0.21504,1.01936 0.61326,1.29977 -0.44308,1.49539 l -0.41539,1.27386 c 0.59751,0.53834 0.59913,0.51762 0,0.99693 -0.1241,0.96001 -0.0125,1.92001 -0.60924,2.88002 0.63683,1.09613 0.3958,1.885 -0.44307,2.46463 -4.0062,17.85177 -9.93274,35.159 -15.75048,49.04951 -6.22473,16.67487 -10.52574,32.16926 -16.05687,45.7425 l -0.78326,1.8015 -5.01287,18.40666 z"
       style="fill:#000000;stroke:none;stroke-width:0.26458332px;stroke-linecap:butt;stroke-linejoin:miter;stroke-opacity:1" />
    <path
       sodipodi:nodetypes="cccccccccccccccccccccccccccccccsccccccccccccccccccccccccccccccccccccccccccccccccccccsccccccccccccc"
       inkscape:connector-curvature="0"
       id="path1045"
       d="m 155.70263,122.66627 c -0.84844,1.82711 -1.19308,3.53034 -0.61642,5.00706 l -1.29555,0.28139 c 0.41414,1.08249 0.95407,2.04731 2.05883,2.48322 -0.45485,4.17082 0.66067,7.8265 1.52935,11.56315 l -0.79433,0.71518 -3.43027,-3.77535 c 1.53249,3.7058 3.11612,7.32278 5.46735,9.60613 -1.13898,4.38952 0.69049,7.54586 1.53438,11.11162 l -1.28205,0.46843 c -1.35684,-1.15161 -2.99217,-3.34505 -3.96009,-3.04161 1.70863,3.65231 4.073,4.56661 6.11332,6.83389 0.91241,5.99077 1.683,12.05188 4.04994,17.32144 -1.22935,2.24685 -4.42627,-1.46609 -6.93365,-3.09037 -6.60393,-9.07024 -13.76142,-20.2029 -11.50364,-28.9273 -1.09379,-5.15712 -1.08361,-10.80187 0.0903,-16.47333 0.21904,-5.81458 1.35913,-11.56464 2.03868,-17.34697 -3.01417,-0.1606 -3.57394,3.55501 -4.98658,5.92372 -1.58611,0.98027 -2.05306,-2.07836 -2.82798,-4.02556 0.26438,2.02996 0.17249,4.11332 1.27978,6.01697 -6.12341,6.51915 -7.18786,12.79935 -9.26023,19.12717 l -1.17678,0.10365 c 0.30655,-2.07444 -0.17605,-4.74755 -1.10466,-7.759 l -0.31617,-7.25193 c -0.71448,4.60326 -2.69038,8.25776 0.81609,17.57342 -3.09605,2.239 -4.99964,7.89737 -6.21811,6.05014 l -1.46776,-9.40581 c -0.0977,3.22931 -0.42053,6.55212 0.15873,9.5002 l 1.02781,2.78316 c -3.64739,2.47394 -6.34046,5.38108 -7.8994,8.80304 l -0.78847,-0.50707 c 1.41393,-9.78753 0.25187,-20.0937 6.91932,-33.16092 3.35725,-6.57969 8.76658,-15.64282 16.90833,-20.90905 -7.77744,-1.77463 -12.86872,-0.41745 -18.24689,0.60524 0.19384,-2.31964 2.7412,-4.57589 5.19613,-6.83463 -4.33539,1.76246 -7.16038,4.66555 -10.0375,7.52932 -5.05928,0.71022 -8.95151,3.28654 -13.03783,5.55251 0.15715,-1.77013 1.14025,-4.2581 1.80634,-6.47056 -2.18509,2.44347 -3.60718,4.75574 -4.03522,6.89712 -6.150165,1.95094 -10.403545,4.36403 -13.703695,7.00947 1.93594,-7.98082 10.86748,-21.25538 30.201635,-27.618802 7.59851,0.61875 14.13675,1.80766 19.63612,3.55526 -1.57061,-2.11834 -4.6408,-4.10005 -8.84968,-5.97803 l 5.6758,-2.10108 c -4.19237,-1.89811 -6.68458,-1.48136 -8.72654,-0.45159 -3.65763,-2.88443 -7.2293,-5.85362 -13.36776,-6.29197 2.11732,-2.49635 4.70932,-2.68147 7.31838,-2.78347 -2.25278,-0.59947 -4.46861,-1.72664 -6.90994,0.36669 -7.05026,-3.88852 -14.989925,-7.67391 -23.174795,-11.43087 11.813995,-3.70431 22.473865,1.13094 33.063165,6.48833 9.58719,4.47648 12.20569,8.59946 17.01631,12.83364 l -1.60068,-4.47123 c -6.29816,-7.07276 -11.408,-14.32361 -18.95491,-21.20922 7.40809,1.59263 10.48532,8.43093 15.46553,12.96428 -5.71646,-11.50356 -9.55545,-21.80525 -12.60651,-34.05474 5.13529,7.53514 11.04106,12.43266 13.48206,21.17154 l -0.26484,-8.36473 c 2.31904,4.24796 2.36408,8.97043 2.92272,13.68079 l -0.0596,-16.98886 c 0.19208,-8.59901 3.15854,-13.22827 12.37955,-18.88214 -1.16545,8.51333 -0.019,15.7678 2.56249,22.24092 -4.38449,7.98873 -11.65203,33.61887 -2.00279,9.24253 0.30916,8.87971 0.0193,19.20992 0.0289,28.81487 3.27668,-10.10858 7.71127,-20.1888 17.52681,-30.13723 -4.79054,9.18625 -9.94669,18.37958 -11.49474,27.50291 3.99119,-4.82883 7.18195,-9.50684 13.15048,-14.70825 12.31696,-6.37928 24.70922,-10.60592 37.32498,-8.44365 -4.27631,2.52339 -7.87347,4.85927 -9.55724,6.66689 -4.45491,-0.17464 -9.13468,0.0709 -15.07154,2.66581 5.52243,0.22296 10.64144,0.64593 14.66568,1.61173 -3.22102,2.81681 -5.50824,5.21887 -7.21375,7.36256 l -14.46162,3.82491 11.93129,-0.33403 c -4.43325,3.06989 -8.55603,6.08486 -10.98246,8.79979 l 3.84379,1.20904 -0.52709,1.353932 c 25.16571,5.95937 26.54832,13.86604 30.77232,21.54007 -2.97025,-3.64476 -8.09921,-3.27478 -12.82096,-3.66213 -1.38474,-1.52202 -2.64295,-3.0966 -5.02153,-4.20575 2.75638,2.5143 3.75927,4.18929 2.74042,4.89658 -3.95295,-1.87394 -8.49923,-1.6767 -12.95064,-1.81059 -3.04045,-2.91007 -6.03545,-5.83901 -11.38911,-7.7881 3.5803,3.1405 6.50283,6.19428 7.66171,9.01559 -4.76282,0.20804 -11.74618,-3.47936 -17.69922,-5.35931 6.0599,2.73367 10.03531,7.37335 14.96945,10.17074 16.8659,9.56203 25.43037,34.64864 28.58566,44.55614 -3.8834,-3.29057 -7.13368,-6.70708 -12.47673,-9.70732 -1.75399,-5.43554 -3.8245,-10.89324 -6.63254,-16.40258 1.08579,3.97607 2.84057,8.42822 2.83214,11.62566 -3.72679,-3.97725 -5.54936,-8.48025 -11.46182,-11.85405 -0.35086,-5.10562 -2.5908,-10.99142 -6.03812,-17.37588 1.33608,4.54616 3.22034,9.28187 2.86913,13.24461 l -2.21051,-1.71475 c 2.18757,4.98872 5.14233,10.46528 4.2427,13.49114 l -8.6113,-17.66885 c 0.44898,2.53033 3.17341,7.4503 0.9277,7.15068 -1.85656,-5.06933 -2.87788,-10.24572 -6.36624,-15.10589 z"
       style="fill:#000000;stroke:none;stroke-width:0.28323698px;stroke-linecap:butt;stroke-linejoin:miter;stroke-opacity:1" />
    <path
       style="fill:#000000;stroke:none;stroke-width:0.28323698px;stroke-linecap:butt;stroke-linejoin:miter;stroke-opacity:1"
       d="m 254.16674,147.70222 c -1.84825,0.80135 -3.23773,1.84495 -3.78828,3.3316 l -1.15504,-0.65076 c -0.40998,1.08407 -0.64776,2.16382 -0.11199,3.22375 -3.1118,2.81414 -4.70784,6.28704 -6.54214,9.65639 l -1.06884,0.006 -0.054,-5.1007 c -1.3178,3.78747 -2.53836,7.54255 -2.29904,10.8113 -3.76832,2.52288 -4.49904,6.09716 -6.23829,9.32234 l -1.26927,-0.50204 c -0.24847,-1.76224 -0.0126,-4.48802 -0.93752,-4.90457 -1.15064,3.86456 0.008,6.11909 0.0261,9.1692 -3.29971,5.08268 -6.75214,10.12367 -8.48571,15.63415 -2.41183,0.86182 -2.33295,-4.03716 -3.12696,-6.91722 1.09363,-11.16625 3.14432,-24.24144 10.62957,-29.25978 2.61014,-4.58033 6.36925,-8.79132 11.01565,-12.24885 4.02803,-4.19907 8.7014,-7.73781 13.0521,-11.60674 -2.14546,-2.12321 -5.03311,0.28107 -7.66288,1.11212 -1.83663,-0.32167 -0.15277,-2.91741 0.56232,-4.88737 -1.15156,1.69249 -2.60482,3.18811 -3.04262,5.34642 -8.90804,0.80149 -13.87722,4.78661 -19.63116,8.13746 l -0.94817,-0.70464 c 1.60772,-1.34629 3.02367,-3.66437 4.33123,-6.53168 l 4.58339,-5.62876 c -3.59319,2.96471 -7.49836,4.38216 -11.06952,13.67322 -3.8014,-0.38466 -8.98432,2.57815 -8.66709,0.3881 l 5.1544,-8.00349 c -2.21921,2.34801 -4.66876,4.61626 -6.19523,7.20404 l -1.08171,2.76266 c -4.36951,-0.57553 -8.31386,-0.19313 -11.75293,1.32768 l -0.25215,-0.9029 c 7.56128,-6.37354 13.54247,-14.8466 27.20886,-20.17923 6.8814,-2.68512 16.9466,-5.86204 26.53005,-4.38596 -4.63188,-6.49489 -9.33806,-8.86447 -14.03631,-11.67464 1.68647,-1.60441 5.08936,-1.59731 8.42484,-1.65349 -4.41073,-1.56439 -8.45095,-1.27269 -12.50399,-1.04502 -4.25231,-2.83172 -8.8728,-3.49347 -13.43206,-4.51611 1.29385,-1.2182 3.68193,-2.42384 5.65003,-3.6343 -3.25663,0.37355 -5.85595,1.15615 -7.59894,2.47171 -5.892,-2.62966 -10.67387,-3.6534 -14.89789,-3.87 6.75058,-4.676652 22.2465,-8.659482 40.9221,-0.56474 5.26638,5.5123 9.3616,10.74597 12.30927,15.70665 0.23429,-2.62665 -0.74271,-6.14783 -2.63948,-10.34827 l 5.63734,2.20221 c -1.87106,-4.20452 -4.01021,-5.54944 -6.22034,-6.13709 -0.81599,-4.586102 -1.51142,-9.178412 -5.80674,-13.585572 3.24114,-0.4581 5.3009,1.12622 7.31818,2.78399 -1.28487,-1.94512 -2.19141,-4.25999 -5.4068,-4.31836 -2.68364,-7.5911 -6.10039,-15.69625 -9.71925,-23.94312 11.2893,5.08374 16.04085,15.78118 20.39265,26.82187 4.18847,9.716472 3.40487,14.537422 4.18533,20.898332 l 1.77555,-4.40471 c -0.005,-9.470522 0.99542,-18.284352 -0.0674,-28.444952 4.47686,6.11342 2.23143,13.26812 2.93977,19.96529 3.37393,-12.39461 7.35194,-22.64342 13.2132,-33.82396 -1.17076,9.04316 -0.0129,16.62756 -3.99681,24.77953 l 5.3613,-6.42613 c -1.09041,4.71531 -4.19531,8.27387 -6.9084,12.16472 l 11.24627,-12.73368 c 5.85843,-6.29752 11.15157,-7.78499 21.79906,-5.88127 -6.52878,5.5866 -10.49348,11.76906 -12.86663,18.32143 -8.58539,3.05524 -31.04949,17.376062 -7.63906,5.574962 -5.67045,6.84038 -12.75249,14.36646 -19.12877,21.54966 9.16649,-5.37545 19.17933,-9.96015 33.12522,-10.8702 -9.68467,3.68017 -19.64723,7.12264 -26.86729,12.91075 6.19145,-0.95556 11.68459,-2.33038 19.60113,-2.25019 13.4429,3.41926 25.5114,8.49702 33.50085,18.4971 -4.8723,-0.95656 -9.11253,-1.60187 -11.57198,-1.37025 -3.21264,-3.09123 -6.87257,-6.0179 -13.03314,-8.02465 3.97818,3.8368 7.52199,7.55494 9.88703,10.95109 -4.27879,-0.036 -7.58421,0.23876 -10.28327,0.70704 l -13.34775,-6.75322 9.13705,7.67995 c -5.35277,-0.65252 -10.43705,-1.13974 -14.05442,-0.72375 l 2.06854,3.45798 -1.29366,0.66135 c 14.84321,21.17797 10.62152,28.00471 8.67753,36.54601 0.20294,-4.69739 -3.87531,-7.82965 -7.14596,-11.25715 -0.0231,-2.05755 0.0832,-4.07028 -0.95695,-6.47984 0.38857,3.71057 0.0247,5.62864 -1.20662,5.48 -1.70822,-4.02734 -5.23629,-6.90142 -8.47339,-9.95987 -0.33779,-4.19508 -0.62908,-8.37406 -3.33397,-13.38846 0.58802,4.72604 0.74219,8.95014 -0.26693,11.82841 -3.69704,-3.00992 -6.46436,-10.40628 -9.66305,-15.76737 2.71115,6.07 2.59805,12.17883 4.42569,17.54826 6.24726,18.35382 -4.02594,42.79047 -8.25283,52.29035 -0.71476,-5.03962 -0.87276,-9.75257 -2.87112,-15.54534 2.30188,-5.22713 4.38198,-10.68118 5.94533,-16.66398 -1.8312,3.69253 -3.47893,8.1854 -5.61024,10.56893 -0.14138,-5.44863 1.48949,-10.02455 -0.68607,-16.47487 3.13104,-4.04809 5.36906,-9.93462 7.03634,-16.99618 -2.02306,4.28485 -3.7625,9.07565 -6.65856,11.80319 l -0.51207,-2.75037 c -1.68095,5.18143 -3.11288,11.23725 -5.79607,12.90027 l 5.30836,-18.92522 c -1.34618,2.18905 -2.5803,7.67591 -4.05916,5.95953 1.98185,-5.02167 4.65895,-9.56823 5.28252,-15.51811 z"
       id="path1047"
       inkscape:connector-curvature="0"
       sodipodi:nodetypes="cccccccccccccccccccccccccccccccsccccccccccccccccccccccccccccccccccccccccccccccccccccsccccccccccccc" />
    <text
       xml:space="preserve"
       style="font-style:normal;font-variant:normal;font-weight:normal;font-stretch:normal;font-size:30.62675667px;line-height:1.25;font-family:Rubik;-inkscape-font-specification:'Rubik, Normal';font-variant-ligatures:normal;font-variant-caps:normal;font-variant-numeric:normal;font-feature-settings:normal;text-align:start;letter-spacing:0px;word-spacing:0px;writing-mode:lr-tb;text-anchor:start;fill:#ffffff;fill-opacity:1;stroke:#ffffff;stroke-width:0.74332368"
       x="27.603655"
       y="104.77338"
       id="text1083-5"><tspan
         sodipodi:role="line"
         id="tspan1081-3"
         x="27.603655"
         y="104.77338"
         style="font-style:normal;font-variant:normal;font-weight:normal;font-stretch:normal;font-size:30.62675667px;font-family:Rubik;-inkscape-font-specification:'Rubik, Normal';font-variant-ligatures:normal;font-variant-caps:normal;font-variant-numeric:normal;font-feature-settings:normal;text-align:start;writing-mode:lr-tb;text-anchor:start;fill:#ffffff;stroke:#ffffff;stroke-width:0.74332368">Ionut</tspan></text>
    <text
       xml:space="preserve"
       style="font-style:normal;font-variant:normal;font-weight:normal;font-stretch:normal;font-size:30.62675667px;line-height:1.25;font-family:Rubik;-inkscape-font-specification:'Rubik, Normal';font-variant-ligatures:normal;font-variant-caps:normal;font-variant-numeric:normal;font-feature-settings:normal;text-align:start;letter-spacing:0px;word-spacing:0px;writing-mode:lr-tb;text-anchor:start;fill:#ffffff;fill-opacity:1;stroke:#ffffff;stroke-width:0.78801775"
       x="28.774187"
       y="137.283"
       id="text1087-2"><tspan
         sodipodi:role="line"
         id="tspan1085-0"
         x="28.774187"
         y="137.283"
         style="font-style:normal;font-variant:normal;font-weight:normal;font-stretch:normal;font-size:30.62675667px;font-family:Rubik;-inkscape-font-specification:'Rubik, Normal';font-variant-ligatures:normal;font-variant-caps:normal;font-variant-numeric:normal;font-feature-settings:normal;text-align:start;writing-mode:lr-tb;text-anchor:start;fill:#ffffff;stroke:#ffffff;stroke-width:0.78801775">Cicio</tspan></text>
    <g
       id="g1120"
       transform="translate(-43.111839,-22.4012)">
      <text
         id="text1097-0"
         y="198.32986"
         x="72.936394"
         style="font-style:normal;font-variant:normal;font-weight:normal;font-stretch:normal;font-size:10.58333302px;line-height:1.25;font-family:Alef;-inkscape-font-specification:'Alef, Normal';font-variant-ligatures:normal;font-variant-caps:normal;font-variant-numeric:normal;font-feature-settings:normal;text-align:start;letter-spacing:0px;word-spacing:0px;writing-mode:lr-tb;text-anchor:start;fill:#ffffff;fill-opacity:1;stroke:none;stroke-width:0.26458332;stroke-opacity:1"
         xml:space="preserve"><tspan
           style="font-style:normal;font-variant:normal;font-weight:normal;font-stretch:normal;font-size:10.58333302px;font-family:Alef;-inkscape-font-specification:'Alef, Normal';font-variant-ligatures:normal;font-variant-caps:normal;font-variant-numeric:normal;font-feature-settings:normal;text-align:start;writing-mode:lr-tb;text-anchor:start;fill:#ffffff;fill-opacity:1;stroke:none;stroke-width:0.26458332;stroke-opacity:1"
           y="198.32986"
           x="72.936394"
           id="tspan1095-5"
           sodipodi:role="line">fullstack developer /</tspan></text>
      <text
         id="text1101-1"
         y="209.85831"
         x="72.595329"
         style="font-style:normal;font-variant:normal;font-weight:normal;font-stretch:normal;font-size:10.58333302px;line-height:1.25;font-family:Alef;-inkscape-font-specification:'Alef, Normal';font-variant-ligatures:normal;font-variant-caps:normal;font-variant-numeric:normal;font-feature-settings:normal;text-align:start;letter-spacing:0px;word-spacing:0px;writing-mode:lr-tb;text-anchor:start;fill:#ffffff;fill-opacity:1;stroke:none;stroke-width:0.26458332;stroke-opacity:1"
         xml:space="preserve"><tspan
           style="font-style:normal;font-variant:normal;font-weight:normal;font-stretch:normal;font-size:10.58333302px;font-family:Alef;-inkscape-font-specification:'Alef, Normal';font-variant-ligatures:normal;font-variant-caps:normal;font-variant-numeric:normal;font-feature-settings:normal;text-align:start;writing-mode:lr-tb;text-anchor:start;fill:#ffffff;fill-opacity:1;stroke:none;stroke-width:0.26458332;stroke-opacity:1"
           y="209.85831"
           x="72.595329"
           id="tspan1099-2"
           sodipodi:role="line">designer / artist</tspan></text>
      <text
         xml:space="preserve"
         style="font-style:normal;font-variant:normal;font-weight:normal;font-stretch:normal;font-size:10.58333302px;line-height:1.25;font-family:Alef;-inkscape-font-specification:'Alef, Normal';font-variant-ligatures:normal;font-variant-caps:normal;font-variant-numeric:normal;font-feature-settings:normal;text-align:start;letter-spacing:0px;word-spacing:0px;writing-mode:lr-tb;text-anchor:start;fill:#ffffff;fill-opacity:1;stroke:none;stroke-width:0.26458332;stroke-opacity:1"
         x="72.595329"
         y="221.65578"
         id="text1113-5"><tspan
           sodipodi:role="line"
           id="tspan1111-9"
           x="72.595329"
           y="221.65578"
           style="font-style:normal;font-variant:normal;font-weight:normal;font-stretch:normal;font-size:10.58333302px;font-family:Alef;-inkscape-font-specification:'Alef, Normal';font-variant-ligatures:normal;font-variant-caps:normal;font-variant-numeric:normal;font-feature-settings:normal;text-align:start;writing-mode:lr-tb;text-anchor:start;fill:#ffffff;fill-opacity:1;stroke:none;stroke-width:0.26458332;stroke-opacity:1">and much more ...</tspan></text>
    </g>
    <rect
       style="opacity:1;fill:#fdf7bc;fill-opacity:0.3157895;stroke:none;stroke-width:1.32291663;stroke-linecap:round;stroke-linejoin:round;stroke-miterlimit:4;stroke-dasharray:none;stroke-opacity:0.52631579;paint-order:stroke fill markers"
       id="rect1130"
       width="35.716747"
       height="13.785411"
       x="558.91199"
       y="557.82623" />
    <rect
       style="opacity:1;fill:#fdf7bc;fill-opacity:0.3157895;stroke:none;stroke-width:1.26533854;stroke-linecap:round;stroke-linejoin:round;stroke-miterlimit:4;stroke-dasharray:none;stroke-opacity:0.52631579;paint-order:stroke fill markers"
       id="rect1132"
       width="23.65451"
       height="32.818672"
       x="590.39911"
       y="548.34875" />
    <rect
       style="opacity:1;fill:#fdf7bc;fill-opacity:0.3157895;stroke:none;stroke-width:1.32291663;stroke-linecap:round;stroke-linejoin:round;stroke-miterlimit:4;stroke-dasharray:none;stroke-opacity:0.52631579;paint-order:stroke fill markers"
       id="rect1134"
       width="8.4592152"
       height="8.4592152"
       x="590.39911"
       y="553.59668" />
    <rect
       y="567.38208"
       x="590.39911"
       height="8.4592152"
       width="8.4592152"
       id="rect1136"
       style="opacity:1;fill:#fdf7bc;fill-opacity:0.3157895;stroke:none;stroke-width:1.32291663;stroke-linecap:round;stroke-linejoin:round;stroke-miterlimit:4;stroke-dasharray:none;stroke-opacity:0.52631579;paint-order:stroke fill markers" />
    <text
       id="text1167"
       y="93.818878"
       x="335.05472"
       style="font-style:normal;font-variant:normal;font-weight:normal;font-stretch:normal;font-size:15.45715809px;line-height:1.25;font-family:Rubik;-inkscape-font-specification:'Rubik, Normal';font-variant-ligatures:normal;font-variant-caps:normal;font-variant-numeric:normal;font-feature-settings:normal;text-align:start;letter-spacing:0px;word-spacing:0px;writing-mode:lr-tb;text-anchor:start;fill:#ffffff;fill-opacity:1;stroke:#ffffff;stroke-width:0.37515143"
       xml:space="preserve"><tspan
         style="font-style:normal;font-variant:normal;font-weight:normal;font-stretch:normal;font-size:15.45715809px;font-family:Rubik;-inkscape-font-specification:'Rubik, Normal';font-variant-ligatures:normal;font-variant-caps:normal;font-variant-numeric:normal;font-feature-settings:normal;text-align:start;writing-mode:lr-tb;text-anchor:start;fill:#ffffff;stroke:#ffffff;stroke-width:0.37515143"
         y="93.818878"
         x="335.05472"
         id="tspan1165"
         sodipodi:role="line">projects</tspan></text>
    <text
       xml:space="preserve"
       style="font-style:normal;font-variant:normal;font-weight:normal;font-stretch:normal;font-size:15.45715809px;line-height:1.25;font-family:Rubik;-inkscape-font-specification:'Rubik, Normal';font-variant-ligatures:normal;font-variant-caps:normal;font-variant-numeric:normal;font-feature-settings:normal;text-align:start;letter-spacing:0px;word-spacing:0px;writing-mode:lr-tb;text-anchor:start;fill:#ffffff;fill-opacity:1;stroke:#ffffff;stroke-width:0.37515143"
       x="408.22797"
       y="93.818878"
       id="text1171"><tspan
         sodipodi:role="line"
         id="tspan1169"
         x="408.22797"
         y="93.818878"
         style="font-style:normal;font-variant:normal;font-weight:normal;font-stretch:normal;font-size:15.45715809px;font-family:Rubik;-inkscape-font-specification:'Rubik, Normal';font-variant-ligatures:normal;font-variant-caps:normal;font-variant-numeric:normal;font-feature-settings:normal;text-align:start;writing-mode:lr-tb;text-anchor:start;fill:#ffffff;stroke:#ffffff;stroke-width:0.37515143">contacts</tspan></text>
    <text
       xml:space="preserve"
       style="font-style:normal;font-variant:normal;font-weight:normal;font-stretch:normal;font-size:15.45715809px;line-height:1.25;font-family:Rubik;-inkscape-font-specification:'Rubik, Normal';font-variant-ligatures:normal;font-variant-caps:normal;font-variant-numeric:normal;font-feature-settings:normal;text-align:start;letter-spacing:0px;word-spacing:0px;writing-mode:lr-tb;text-anchor:start;fill:#ffffff;fill-opacity:1;stroke:#ffffff;stroke-width:0.37515143"
       x="253.60022"
       y="93.818878"
       id="text1175"><tspan
         sodipodi:role="line"
         id="tspan1173"
         x="253.60022"
         y="93.818878"
         style="font-style:normal;font-variant:normal;font-weight:normal;font-stretch:normal;font-size:15.45715809px;font-family:Rubik;-inkscape-font-specification:'Rubik, Normal';font-variant-ligatures:normal;font-variant-caps:normal;font-variant-numeric:normal;font-feature-settings:normal;text-align:start;writing-mode:lr-tb;text-anchor:start;fill:#ffffff;stroke:#ffffff;stroke-width:0.37515143">about me</tspan></text>
    <path
       inkscape:connector-curvature="0"
       id="path1179"
       d="M 701.83855,11.117728 V 296.86772 H 1209.8386 V 11.117728 Z"
       style="fill:url(#linearGradient1267);fill-opacity:1;stroke:#000000;stroke-width:0.26458332px;stroke-linecap:butt;stroke-linejoin:miter;stroke-opacity:1" />
    <circle
       r="46.829723"
       cy="222.97809"
       cx="1092.5616"
       id="circle1181"
       style="opacity:1;fill:#fdf7bc;fill-opacity:1;stroke:none;stroke-width:0.62746823;stroke-linecap:round;stroke-linejoin:round;stroke-miterlimit:4;stroke-dasharray:none;stroke-opacity:0.52631579;paint-order:stroke fill markers" />
    <path
       style="fill:none;stroke:#000000;stroke-width:0.26458332px;stroke-linecap:butt;stroke-linejoin:miter;stroke-opacity:1"
       d="M 701.83857,11.117728 V 296.86773 H 1209.8386 V 11.117728 Z"
       id="path1183"
       inkscape:connector-curvature="0" />
    <g
       transform="translate(701.83855,-10.099565)"
       id="g1219">
      <path
         style="opacity:1;fill:url(#linearGradient1269);fill-opacity:1;stroke:none;stroke-width:1.32291663;stroke-linecap:round;stroke-linejoin:round;stroke-miterlimit:4;stroke-dasharray:none;stroke-opacity:0.52631579;paint-order:stroke fill markers"
         d="m 13.939339,111.98925 a 22.87125,22.87125 0 0 0 -22.8714602,22.87095 22.87125,22.87125 0 0 0 3.1941001,11.60447 22.187282,22.187282 0 0 0 -1.8060701,8.75295 22.187282,22.187282 0 0 0 22.1872702,22.18727 22.187282,22.187282 0 0 0 22.18727,-22.18727 22.187282,22.187282 0 0 0 -2.45774,-10.14098 22.87125,22.87125 0 0 0 2.43811,-10.21644 22.87125,22.87125 0 0 0 -22.87148,-22.87095 z"
         id="path1185"
         inkscape:connector-curvature="0" />
      <path
         style="opacity:1;fill:url(#linearGradient1271);fill-opacity:1;stroke:none;stroke-width:0.8845585;stroke-linecap:round;stroke-linejoin:round;stroke-miterlimit:4;stroke-dasharray:none;stroke-opacity:0.52631579;paint-order:stroke fill markers"
         d="m 37.472279,117.09592 a 15.292693,15.292693 0 0 0 -15.29313,15.2926 15.292693,15.292693 0 0 0 8.06823,13.47256 30.585391,30.585391 0 0 0 -2.71454,12.53206 30.585391,30.585391 0 0 0 30.58519,30.5852 30.585391,30.585391 0 0 0 30.585226,-30.5852 30.585391,30.585391 0 0 0 -30.585226,-30.58572 30.585391,30.585391 0 0 0 -5.88645,0.59994 15.292693,15.292693 0 0 0 -14.7593,-11.31144 z"
         id="path1187"
         inkscape:connector-curvature="0" />
      <circle
         style="opacity:1;fill:url(#linearGradient1273);fill-opacity:1;stroke:none;stroke-width:0.8845585;stroke-linecap:round;stroke-linejoin:round;stroke-miterlimit:4;stroke-dasharray:none;stroke-opacity:0.52631579;paint-order:stroke fill markers"
         id="circle1189"
         cx="66.037598"
         cy="124.79275"
         r="15.292693" />
      <circle
         r="18.4338"
         cy="164.02629"
         cx="89.588013"
         id="circle1191"
         style="opacity:1;fill:url(#linearGradient1275);fill-opacity:1;stroke:none;stroke-width:1.06624603;stroke-linecap:round;stroke-linejoin:round;stroke-miterlimit:4;stroke-dasharray:none;stroke-opacity:0.52631579;paint-order:stroke fill markers" />
      <path
         style="opacity:1;fill:url(#linearGradient1277);fill-opacity:1;stroke:none;stroke-width:1.06624603;stroke-linecap:round;stroke-linejoin:round;stroke-miterlimit:4;stroke-dasharray:none;stroke-opacity:0.52631579;paint-order:stroke fill markers"
         d="m 146.48886,136.66321 a 18.433799,18.433799 0 0 0 -15.92565,9.18599 18.433799,18.433799 0 0 0 -3.04114,-0.25683 18.433799,18.433799 0 0 0 -5.07413,0.71934 18.433799,18.433799 0 0 0 -13.89319,-6.35259 18.433799,18.433799 0 0 0 -18.433485,18.43402 18.433799,18.433799 0 0 0 18.433485,18.4335 18.433799,18.433799 0 0 0 5.0741,-0.71935 18.433799,18.433799 0 0 0 13.89322,6.35259 18.433799,18.433799 0 0 0 15.92873,-9.20202 18.433799,18.433799 0 0 0 3.03806,0.27286 18.433799,18.433799 0 0 0 18.43352,-18.43352 18.433799,18.433799 0 0 0 -18.43352,-18.43399 z"
         id="path1193"
         inkscape:connector-curvature="0" />
      <circle
         r="26.331602"
         cy="154.58995"
         cx="173.58191"
         id="circle1195"
         style="opacity:1;fill:url(#linearGradient1279);fill-opacity:1;stroke:none;stroke-width:1.5230701;stroke-linecap:round;stroke-linejoin:round;stroke-miterlimit:4;stroke-dasharray:none;stroke-opacity:0.52631579;paint-order:stroke fill markers" />
      <circle
         style="opacity:1;fill:url(#linearGradient1281);fill-opacity:1;stroke:none;stroke-width:2.00878024;stroke-linecap:round;stroke-linejoin:round;stroke-miterlimit:4;stroke-dasharray:none;stroke-opacity:0.52631579;paint-order:stroke fill markers"
         id="circle1197"
         cx="219.95471"
         cy="156.58379"
         r="34.728806" />
      <circle
         r="26.383612"
         cy="129.43715"
         cx="192.80811"
         id="circle1199"
         style="opacity:1;fill:url(#linearGradient1283);fill-opacity:1;stroke:none;stroke-width:1.52607834;stroke-linecap:round;stroke-linejoin:round;stroke-miterlimit:4;stroke-dasharray:none;stroke-opacity:0.52631579;paint-order:stroke fill markers" />
      <circle
         style="opacity:1;fill:url(#linearGradient1285);fill-opacity:1;stroke:none;stroke-width:0.85238993;stroke-linecap:round;stroke-linejoin:round;stroke-miterlimit:4;stroke-dasharray:none;stroke-opacity:0.52631579;paint-order:stroke fill markers"
         id="circle1201"
         cx="204.79199"
         cy="105.68786"
         r="14.736547" />
      <path
         style="opacity:1;fill:url(#linearGradient1287);fill-opacity:1;stroke:none;stroke-width:2.00878024;stroke-linecap:round;stroke-linejoin:round;stroke-miterlimit:4;stroke-dasharray:none;stroke-opacity:0.52631579;paint-order:stroke fill markers"
         d="m 420.22662,55.836098 a 34.728806,34.728806 0 0 0 -34.7286,34.72862 12.462618,12.462618 0 0 0 -12.46278,12.462802 12.462618,12.462618 0 0 0 12.46278,12.4628 12.462618,12.462618 0 0 0 7.9375,-2.86803 34.728806,34.728806 0 0 0 26.7911,12.67159 34.728806,34.728806 0 0 0 34.7292,-34.729162 34.728806,34.728806 0 0 0 -34.7292,-34.72862 z"
         id="path1203"
         inkscape:connector-curvature="0" />
      <circle
         style="opacity:1;fill:url(#linearGradient1289);fill-opacity:1;stroke:none;stroke-width:1.68808699;stroke-linecap:round;stroke-linejoin:round;stroke-miterlimit:4;stroke-dasharray:none;stroke-opacity:0.52631579;paint-order:stroke fill markers"
         id="circle1205"
         cx="450.25537"
         cy="84.860283"
         r="29.184498" />
      <circle
         style="opacity:1;fill:url(#linearGradient1291);fill-opacity:1;stroke:none;stroke-width:0.41884944;stroke-linecap:round;stroke-linejoin:round;stroke-miterlimit:4;stroke-dasharray:none;stroke-opacity:0.52631579;paint-order:stroke fill markers"
         id="circle1207"
         cx="369.16418"
         cy="111.55059"
         r="7.2412801" />
      <circle
         r="17.665258"
         cy="83.863396"
         cx="505.97266"
         id="circle1209"
         style="opacity:1;fill:url(#linearGradient1293);fill-opacity:1;stroke:none;stroke-width:1.02179217;stroke-linecap:round;stroke-linejoin:round;stroke-miterlimit:4;stroke-dasharray:none;stroke-opacity:0.52631579;paint-order:stroke fill markers" />
      <path
         style="opacity:1;fill:url(#linearGradient1295);fill-opacity:1;stroke:none;stroke-width:2.50193787;stroke-linecap:round;stroke-linejoin:round;stroke-miterlimit:4;stroke-dasharray:none;stroke-opacity:0.52631579;paint-order:stroke fill markers"
         d="m 282.99938,-32.269124 a 43.25476,43.25476 0 0 0 -43.25472,43.254722 43.25476,43.25476 0 0 0 43.25472,43.25471 43.25476,43.25476 0 0 0 7.26935,-0.6196 43.25476,43.25476 0 0 0 6.98611,0.6196 43.25476,43.25476 0 0 0 43.25474,-43.25471 43.25476,43.25476 0 0 0 -43.25474,-43.254722 43.25476,43.25476 0 0 0 -7.26829,0.619072 43.25476,43.25476 0 0 0 -6.98717,-0.619072 z"
         id="path1211"
         inkscape:connector-curvature="0" />
      <circle
         style="opacity:1;fill:url(#linearGradient1297);fill-opacity:1;stroke:none;stroke-width:1.12814188;stroke-linecap:round;stroke-linejoin:round;stroke-miterlimit:4;stroke-dasharray:none;stroke-opacity:0.52631579;paint-order:stroke fill markers"
         id="circle1213"
         cx="352.70972"
         cy="23.077866"
         r="19.503885" />
      <circle
         r="19.503885"
         cy="24.017822"
         cx="232.68103"
         id="circle1215"
         style="opacity:1;fill:url(#linearGradient1299);fill-opacity:1;stroke:none;stroke-width:1.12814188;stroke-linecap:round;stroke-linejoin:round;stroke-miterlimit:4;stroke-dasharray:none;stroke-opacity:0.52631579;paint-order:stroke fill markers" />
      <circle
         style="opacity:1;fill:url(#linearGradient1301);fill-opacity:1;stroke:none;stroke-width:1.12814188;stroke-linecap:round;stroke-linejoin:round;stroke-miterlimit:4;stroke-dasharray:none;stroke-opacity:0.52631579;paint-order:stroke fill markers"
         id="circle1217"
         cx="167.51367"
         cy="12.425529"
         r="19.503885" />
    </g>
    <path
       style="fill:url(#linearGradient1303);fill-opacity:1;stroke:none;stroke-width:0.26458332px;stroke-linecap:butt;stroke-linejoin:miter;stroke-opacity:1"
       d="m 701.83857,233.28576 c 157.82654,-6.64066 338.66663,-3.69233 508.00003,-5.5385 v 69.12047 H 701.83857 Z"
       id="path1221"
       inkscape:connector-curvature="0"
       sodipodi:nodetypes="ccccc" />
    <path
       style="fill:#000000;fill-opacity:1;stroke:none;stroke-width:0.26458332px;stroke-linecap:butt;stroke-linejoin:miter;stroke-opacity:1"
       d="m 701.83857,249.87201 c 161.94553,2.13159 337.31643,16.52107 508.00003,26.6309 v 20.36482 H 701.83857 Z"
       id="path1223"
       inkscape:connector-curvature="0"
       sodipodi:nodetypes="ccccc" />
    <path
       style="fill:#000000;fill-opacity:1;stroke:none;stroke-width:0.26458332px;stroke-linecap:butt;stroke-linejoin:miter;stroke-opacity:1"
       d="m 701.83857,249.87201 254,24.49153 c 39.53434,3.91647 49.50093,6.5297 2.65848,15.92479 l -28.2593,6.5794 H 701.83857 Z"
       id="path1225"
       inkscape:connector-curvature="0"
       sodipodi:nodetypes="cccccc" />
    <path
       style="fill:#000000;stroke:none;stroke-width:0.26458332px;stroke-linecap:butt;stroke-linejoin:miter;stroke-opacity:1"
       d="m 891.03367,273.16295 c -0.46487,-5.52688 -1.06732,-11.05375 -2.05164,-16.58063 -1.82957,-7.56404 -3.78393,-14.50407 -5.42669,-23.00216 -3.46492,-5.86543 -4.05821,-12.55132 -5.63948,-18.95494 -3.51125,-9.21489 -4.73227,-18.17531 -7.04936,-27.25752 -3.27948,-7.47886 -3.9582,-13.96808 -5.41958,-21.62753 l -6.1727,-27.87463 c -0.68603,-5.12777 -1.28039,-10.31667 -1.52692,-15.73744 l -4.48619,-25.698642 c 4.02693,7.362592 6.73243,15.291502 8.69544,23.538622 l 4.37542,18.33243 2.71386,11.57546 7.08928,32.51099 c 1.90224,7.42797 3.05154,14.60496 6.14774,22.43092 1.09535,4.03076 2.77546,8.64627 3.21232,12.01854 7.43611,18.06388 10.36312,35.59498 18.99705,54.66498 h 2.65848 c 2.53202,-4.48322 4.70677,-8.96643 8.63729,-13.44965 2.29249,-3.7097 3.69562,-8.27959 7.03667,-10.97513 8.01735,-17.71866 11.81999,-33.95655 20.49244,-53.77882 3.63608,-10.17325 7.2949,-20.32375 11.077,-30.35097 -0.56224,-2.19431 1.21947,-4.60171 2.12209,-6.92919 -0.60169,-1.7891 0.1964,-3.57631 0.99866,-5.28702 -0.30959,-1.18208 -0.86624,-2.25828 -0.70493,-3.64217 -0.87303,-1.84347 -1.34333,-3.85366 -0.97135,-6.21254 -0.7904,-2.83097 -2.24877,-5.76471 0.63247,-8.03082 0.63927,-0.36991 0.90427,-1.01645 3.15694,-0.19385 1.82276,-5.36426 5.48832,-2.28234 9.02776,0.22154 1.6359,1.24335 3.03713,2.54536 3.21233,4.15388 0.40096,1.42155 1.04347,2.84309 0.60923,4.26464 -1.81582,1.28782 -3.63336,2.57343 -5.95389,3.21233 2.53229,1.56942 -0.50282,2.94797 -1.88309,3.48925 -0.52521,1.31953 0.0335,2.24942 -1.4677,2.04925 0.21504,1.01936 0.61326,1.29977 -0.44308,1.49539 l -0.41539,1.27386 c 0.59751,0.53834 0.59913,0.51762 0,0.99693 -0.1241,0.96001 -0.0125,1.92001 -0.60924,2.88002 0.63683,1.09613 0.3958,1.885 -0.44307,2.46463 -4.0062,17.85177 -9.93274,35.159 -15.75048,49.04951 -6.22473,16.67487 -10.52574,32.16926 -16.05687,45.7425 l -0.78326,1.8015 -5.01287,18.40666 z"
       id="path1227"
       inkscape:connector-curvature="0"
       sodipodi:nodetypes="ccccccccccccccccccccccccccccccccccccccccccc" />
    <path
       style="fill:#000000;stroke:none;stroke-width:0.28323698px;stroke-linecap:butt;stroke-linejoin:miter;stroke-opacity:1"
       d="m 857.54118,122.66627 c -0.84844,1.82711 -1.19308,3.53034 -0.61642,5.00706 l -1.29555,0.28139 c 0.41414,1.08249 0.95407,2.04731 2.05883,2.48322 -0.45485,4.17082 0.66067,7.8265 1.52935,11.56315 l -0.79433,0.71518 -3.43027,-3.77535 c 1.53249,3.7058 3.11612,7.32278 5.46735,9.60613 -1.13898,4.38952 0.69049,7.54586 1.53438,11.11162 l -1.28205,0.46843 c -1.35684,-1.15161 -2.99217,-3.34505 -3.96009,-3.04161 1.70863,3.65231 4.073,4.56661 6.11332,6.83389 0.91241,5.99077 1.683,12.05188 4.04994,17.32144 -1.22935,2.24685 -4.42627,-1.46609 -6.93365,-3.09037 -6.60393,-9.07024 -13.76142,-20.2029 -11.50364,-28.9273 -1.09379,-5.15712 -1.08361,-10.80187 0.0903,-16.47333 0.21904,-5.81458 1.35913,-11.56464 2.03868,-17.34697 -3.01417,-0.1606 -3.57394,3.55501 -4.98658,5.92372 -1.58611,0.98027 -2.05306,-2.07836 -2.82798,-4.02556 0.26438,2.02996 0.17249,4.11332 1.27978,6.01697 -6.12341,6.51915 -7.18786,12.79935 -9.26023,19.12717 l -1.17678,0.10365 c 0.30655,-2.07444 -0.17605,-4.74755 -1.10466,-7.759 l -0.31617,-7.25193 c -0.71448,4.60326 -2.69038,8.25776 0.81609,17.57342 -3.09605,2.239 -4.99964,7.89737 -6.21811,6.05014 l -1.46776,-9.40581 c -0.0977,3.22931 -0.42053,6.55212 0.15873,9.5002 l 1.02781,2.78316 c -3.64739,2.47394 -6.34046,5.38108 -7.8994,8.80304 l -0.78847,-0.50707 c 1.41393,-9.78753 0.25187,-20.0937 6.91932,-33.16092 3.35725,-6.57969 8.76658,-15.64282 16.90833,-20.90905 -7.77744,-1.77463 -12.86872,-0.41745 -18.24689,0.60524 0.19384,-2.31964 2.7412,-4.57589 5.19613,-6.83463 -4.33539,1.76246 -7.16038,4.66555 -10.0375,7.52932 -5.05928,0.71022 -8.95151,3.28654 -13.03783,5.55251 0.15715,-1.77013 1.14025,-4.2581 1.80634,-6.47056 -2.18509,2.44347 -3.60718,4.75574 -4.03522,6.89712 -6.15016,1.95094 -10.40354,4.36403 -13.70369,7.00947 1.93594,-7.98082 10.86748,-21.25538 30.20163,-27.618802 7.59851,0.61875 14.13675,1.80766 19.63612,3.55526 -1.57061,-2.11834 -4.6408,-4.10005 -8.84968,-5.97803 l 5.6758,-2.10108 c -4.19237,-1.89811 -6.68458,-1.48136 -8.72654,-0.45159 -3.65763,-2.88443 -7.2293,-5.85362 -13.36776,-6.29197 2.11732,-2.49635 4.70932,-2.68147 7.31838,-2.78347 -2.25278,-0.59947 -4.46861,-1.72664 -6.90994,0.36669 -7.05026,-3.88852 -14.98992,-7.67391 -23.17479,-11.43087 11.81399,-3.70431 22.47386,1.13094 33.06316,6.48833 9.58719,4.47648 12.20569,8.59946 17.01631,12.83364 l -1.60068,-4.47123 c -6.29816,-7.07276 -11.408,-14.32361 -18.95491,-21.20922 7.40809,1.59263 10.48532,8.43093 15.46553,12.96428 -5.71646,-11.50356 -9.55545,-21.80525 -12.60651,-34.05474 5.13529,7.53514 11.04106,12.43266 13.48206,21.17154 l -0.26484,-8.36473 c 2.31904,4.24796 2.36408,8.97043 2.92272,13.68079 l -0.0596,-16.98886 c 0.19208,-8.59901 3.15854,-13.22827 12.37955,-18.88214 -1.16545,8.51333 -0.019,15.7678 2.56249,22.24092 -4.38449,7.98873 -11.65203,33.61887 -2.00279,9.24253 0.30916,8.87971 0.0193,19.20992 0.0289,28.81487 3.27668,-10.10858 7.71127,-20.1888 17.52681,-30.13723 -4.79054,9.18625 -9.94669,18.37958 -11.49474,27.50291 3.99119,-4.82883 7.18195,-9.50684 13.15048,-14.70825 12.31696,-6.37928 24.70922,-10.60592 37.32498,-8.44365 -4.27631,2.52339 -7.87347,4.85927 -9.55724,6.66689 -4.45491,-0.17464 -9.13468,0.0709 -15.07154,2.66581 5.52243,0.22296 10.64144,0.64593 14.66568,1.61173 -3.22102,2.81681 -5.50824,5.21887 -7.21375,7.36256 l -14.46162,3.82491 11.93129,-0.33403 c -4.43325,3.06989 -8.55603,6.08486 -10.98246,8.79979 l 3.84379,1.20904 -0.52709,1.353932 c 25.16571,5.95937 26.54832,13.86604 30.77232,21.54007 -2.97025,-3.64476 -8.09921,-3.27478 -12.82096,-3.66213 -1.38474,-1.52202 -2.64295,-3.0966 -5.02153,-4.20575 2.75638,2.5143 3.75927,4.18929 2.74042,4.89658 -3.95295,-1.87394 -8.49923,-1.6767 -12.95064,-1.81059 -3.04045,-2.91007 -6.03545,-5.83901 -11.38911,-7.7881 3.5803,3.1405 6.50283,6.19428 7.66171,9.01559 -4.76282,0.20804 -11.74618,-3.47936 -17.69922,-5.35931 6.0599,2.73367 10.03531,7.37335 14.96945,10.17074 16.8659,9.56203 25.43037,34.64864 28.58566,44.55614 -3.8834,-3.29057 -7.13368,-6.70708 -12.47673,-9.70732 -1.75399,-5.43554 -3.8245,-10.89324 -6.63254,-16.40258 1.08579,3.97607 2.84057,8.42822 2.83214,11.62566 -3.72679,-3.97725 -5.54936,-8.48025 -11.46182,-11.85405 -0.35086,-5.10562 -2.5908,-10.99142 -6.03812,-17.37588 1.33608,4.54616 3.22034,9.28187 2.86913,13.24461 l -2.21051,-1.71475 c 2.18757,4.98872 5.14233,10.46528 4.2427,13.49114 l -8.6113,-17.66885 c 0.44898,2.53033 3.17341,7.4503 0.9277,7.15068 -1.85656,-5.06933 -2.87788,-10.24572 -6.36624,-15.10589 z"
       id="path1229"
       inkscape:connector-curvature="0"
       sodipodi:nodetypes="cccccccccccccccccccccccccccccccsccccccccccccccccccccccccccccccccccccccccccccccccccccsccccccccccccc" />
    <path
       sodipodi:nodetypes="cccccccccccccccccccccccccccccccsccccccccccccccccccccccccccccccccccccccccccccccccccccsccccccccccccc"
       inkscape:connector-curvature="0"
       id="path1231"
       d="m 956.00529,147.70222 c -1.84825,0.80135 -3.23773,1.84495 -3.78828,3.3316 l -1.15504,-0.65076 c -0.40998,1.08407 -0.64776,2.16382 -0.11199,3.22375 -3.1118,2.81414 -4.70784,6.28704 -6.54214,9.65639 l -1.06884,0.006 -0.054,-5.1007 c -1.3178,3.78747 -2.53836,7.54255 -2.29904,10.8113 -3.76832,2.52288 -4.49904,6.09716 -6.23829,9.32234 l -1.26927,-0.50204 c -0.24847,-1.76224 -0.0126,-4.48802 -0.93752,-4.90457 -1.15064,3.86456 0.008,6.11909 0.0261,9.1692 -3.29971,5.08268 -6.75214,10.12367 -8.48571,15.63415 -2.41183,0.86182 -2.33295,-4.03716 -3.12696,-6.91722 1.09363,-11.16625 3.14432,-24.24144 10.62957,-29.25978 2.61014,-4.58033 6.36925,-8.79132 11.01565,-12.24885 4.02803,-4.19907 8.7014,-7.73781 13.0521,-11.60674 -2.14546,-2.12321 -5.03311,0.28107 -7.66288,1.11212 -1.83663,-0.32167 -0.15277,-2.91741 0.56232,-4.88737 -1.15156,1.69249 -2.60482,3.18811 -3.04262,5.34642 -8.90804,0.80149 -13.87722,4.78661 -19.63116,8.13746 l -0.94817,-0.70464 c 1.60772,-1.34629 3.02367,-3.66437 4.33123,-6.53168 l 4.58339,-5.62876 c -3.59319,2.96471 -7.49836,4.38216 -11.06952,13.67322 -3.8014,-0.38466 -8.98432,2.57815 -8.66709,0.3881 l 5.1544,-8.00349 c -2.21921,2.34801 -4.66876,4.61626 -6.19523,7.20404 l -1.08171,2.76266 c -4.36951,-0.57553 -8.31386,-0.19313 -11.75293,1.32768 l -0.25215,-0.9029 c 7.56128,-6.37354 13.54247,-14.8466 27.20886,-20.17923 6.8814,-2.68512 16.9466,-5.86204 26.53005,-4.38596 -4.63188,-6.49489 -9.33806,-8.86447 -14.03631,-11.67464 1.68647,-1.60441 5.08936,-1.59731 8.42484,-1.65349 -4.41073,-1.56439 -8.45095,-1.27269 -12.50399,-1.04502 -4.25231,-2.83172 -8.8728,-3.49347 -13.43206,-4.51611 1.29385,-1.2182 3.68193,-2.42384 5.65003,-3.6343 -3.25663,0.37355 -5.85595,1.15615 -7.59894,2.47171 -5.892,-2.62966 -10.67387,-3.6534 -14.89789,-3.87 6.75058,-4.676652 22.2465,-8.659482 40.9221,-0.56474 5.26638,5.5123 9.3616,10.74597 12.30927,15.70665 0.23429,-2.62665 -0.74271,-6.14783 -2.63948,-10.34827 l 5.63734,2.20221 c -1.87106,-4.20452 -4.01021,-5.54944 -6.22034,-6.13709 -0.81599,-4.586102 -1.51142,-9.178412 -5.80674,-13.585572 3.24114,-0.4581 5.3009,1.12622 7.31818,2.78399 -1.28487,-1.94512 -2.19141,-4.25999 -5.4068,-4.31836 -2.68364,-7.5911 -6.10039,-15.69625 -9.71925,-23.94312 11.2893,5.08374 16.04085,15.78118 20.39265,26.82187 4.18847,9.716472 3.40487,14.537422 4.18533,20.898332 l 1.77555,-4.40471 c -0.005,-9.470522 0.99542,-18.284352 -0.0674,-28.444952 4.47686,6.11342 2.23143,13.26812 2.93977,19.96529 3.37393,-12.39461 7.35194,-22.64342 13.2132,-33.82396 -1.17076,9.04316 -0.0129,16.62756 -3.99681,24.77953 l 5.3613,-6.42613 c -1.09041,4.71531 -4.19531,8.27387 -6.9084,12.16472 l 11.24627,-12.73368 c 5.85843,-6.29752 11.15156,-7.78499 21.79906,-5.88127 -6.5288,5.5866 -10.4935,11.76906 -12.86663,18.32143 -8.58539,3.05524 -31.04949,17.376062 -7.63906,5.574962 -5.67045,6.84038 -12.75249,14.36646 -19.12877,21.54966 9.16649,-5.37545 19.17933,-9.96015 33.12526,-10.8702 -9.68471,3.68017 -19.64727,7.12264 -26.86733,12.91075 6.19145,-0.95556 11.68459,-2.33038 19.60113,-2.25019 13.4429,3.41926 25.5114,8.49702 33.5009,18.4971 -4.8723,-0.95656 -9.1126,-1.60187 -11.572,-1.37025 -3.2127,-3.09123 -6.8726,-6.0179 -13.0332,-8.02465 3.9782,3.8368 7.522,7.55494 9.8871,10.95109 -4.2788,-0.036 -7.5842,0.23876 -10.2833,0.70704 l -13.34776,-6.75322 9.13706,7.67995 c -5.35278,-0.65252 -10.43706,-1.13974 -14.05443,-0.72375 l 2.06854,3.45798 -1.29366,0.66135 c 14.84325,21.17797 10.62152,28.00471 8.67753,36.54601 0.20294,-4.69739 -3.87531,-7.82965 -7.14596,-11.25715 -0.0231,-2.05755 0.0832,-4.07028 -0.95695,-6.47984 0.38857,3.71057 0.0247,5.62864 -1.20662,5.48 -1.70822,-4.02734 -5.23629,-6.90142 -8.47339,-9.95987 -0.33779,-4.19508 -0.62908,-8.37406 -3.33397,-13.38846 0.58802,4.72604 0.74219,8.95014 -0.26693,11.82841 -3.69704,-3.00992 -6.46436,-10.40628 -9.66305,-15.76737 2.71115,6.07 2.59805,12.17883 4.42569,17.54826 6.24726,18.35382 -4.02594,42.79047 -8.25283,52.29035 -0.71476,-5.03962 -0.87276,-9.75257 -2.87112,-15.54534 2.30188,-5.22713 4.38198,-10.68118 5.94533,-16.66398 -1.8312,3.69253 -3.47893,8.1854 -5.61024,10.56893 -0.14138,-5.44863 1.48949,-10.02455 -0.68607,-16.47487 3.13104,-4.04809 5.36906,-9.93462 7.03634,-16.99618 -2.02306,4.28485 -3.7625,9.07565 -6.65856,11.80319 l -0.51207,-2.75037 c -1.68095,5.18143 -3.11288,11.23725 -5.79607,12.90027 l 5.30836,-18.92522 c -1.34618,2.18905 -2.5803,7.67591 -4.05916,5.95953 1.98185,-5.02167 4.65895,-9.56823 5.28252,-15.51811 z"
       style="fill:#000000;stroke:none;stroke-width:0.28323698px;stroke-linecap:butt;stroke-linejoin:miter;stroke-opacity:1" />
    <path
       style="fill:url(#linearGradient1430);fill-opacity:1;stroke:#000000;stroke-width:0.26458332px;stroke-linecap:butt;stroke-linejoin:miter;stroke-opacity:1"
       d="M 1278.3194,11.117728 V 296.86772 h 508 V 11.117728 Z"
       id="path1376"
       inkscape:connector-curvature="0" />
    <circle
       style="opacity:1;fill:#fdf7bc;fill-opacity:1;stroke:none;stroke-width:0.62746823;stroke-linecap:round;stroke-linejoin:round;stroke-miterlimit:4;stroke-dasharray:none;stroke-opacity:0.52631579;paint-order:stroke fill markers"
       id="circle1378"
       cx="1669.0425"
       cy="222.97809"
       r="46.829723" />
    <path
       inkscape:connector-curvature="0"
       id="path1380"
       d="M 1278.3194,11.117728 V 296.86773 h 508 V 11.117728 Z"
       style="fill:none;stroke:#000000;stroke-width:0.26458332px;stroke-linecap:butt;stroke-linejoin:miter;stroke-opacity:1" />
    <path
       sodipodi:nodetypes="ccccc"
       inkscape:connector-curvature="0"
       id="path1418"
       d="m 1278.3194,233.28576 c 157.8265,-6.64066 338.6666,-3.69233 508,-5.5385 v 69.12047 h -508 z"
       style="fill:url(#linearGradient1466);fill-opacity:1;stroke:none;stroke-width:0.26458332px;stroke-linecap:butt;stroke-linejoin:miter;stroke-opacity:1" />
    <path
       sodipodi:nodetypes="ccccc"
       inkscape:connector-curvature="0"
       id="path1420"
       d="m 1278.3194,249.87201 c 161.9455,2.13159 337.3164,16.52107 508,26.6309 v 20.36482 h -508 z"
       style="fill:#000000;fill-opacity:1;stroke:none;stroke-width:0.26458332px;stroke-linecap:butt;stroke-linejoin:miter;stroke-opacity:1" />
    <path
       sodipodi:nodetypes="cccccc"
       inkscape:connector-curvature="0"
       id="path1422"
       d="m 1278.3194,249.87201 254,24.49153 c 39.5343,3.91647 49.5009,6.5297 2.6585,15.92479 l -28.2593,6.5794 h -228.3992 z"
       style="fill:#000000;fill-opacity:1;stroke:none;stroke-width:0.26458332px;stroke-linecap:butt;stroke-linejoin:miter;stroke-opacity:1" />
    <path
       sodipodi:nodetypes="ccccccccccccccccccccccccccccccccccccccccccc"
       inkscape:connector-curvature="0"
       id="path1424"
       d="m 1467.5145,273.16295 c -0.4649,-5.52688 -1.0673,-11.05375 -2.0516,-16.58063 -1.8296,-7.56404 -3.784,-14.50407 -5.4267,-23.00216 -3.465,-5.86543 -4.0582,-12.55132 -5.6395,-18.95494 -3.5113,-9.21489 -4.7323,-18.17531 -7.0494,-27.25752 -3.2795,-7.47886 -3.9582,-13.96808 -5.4196,-21.62753 l -6.1727,-27.87463 c -0.686,-5.12777 -1.2803,-10.31667 -1.5269,-15.73744 l -4.4862,-25.698642 c 4.027,7.362592 6.7325,15.291502 8.6955,23.538622 l 4.3754,18.33243 2.7139,11.57546 7.0892,32.51099 c 1.9023,7.42797 3.0516,14.60496 6.1478,22.43092 1.0953,4.03076 2.7754,8.64627 3.2123,12.01854 7.4361,18.06388 10.3631,35.59498 18.997,54.66498 h 2.6585 c 2.532,-4.48322 4.7068,-8.96643 8.6373,-13.44965 2.2925,-3.7097 3.6956,-8.27959 7.0367,-10.97513 8.0173,-17.71866 11.82,-33.95655 20.4924,-53.77882 3.6361,-10.17325 7.2949,-20.32375 11.077,-30.35097 -0.5622,-2.19431 1.2195,-4.60171 2.1221,-6.92919 -0.6017,-1.7891 0.1964,-3.57631 0.9987,-5.28702 -0.3096,-1.18208 -0.8663,-2.25828 -0.705,-3.64217 -0.873,-1.84347 -1.3433,-3.85366 -0.9713,-6.21254 -0.7904,-2.83097 -2.2488,-5.76471 0.6325,-8.03082 0.6392,-0.36991 0.9042,-1.01645 3.1569,-0.19385 1.8228,-5.36426 5.4883,-2.28234 9.0278,0.22154 1.6359,1.24335 3.0371,2.54536 3.2123,4.15388 0.401,1.42155 1.0435,2.84309 0.6092,4.26464 -1.8158,1.28782 -3.6333,2.57343 -5.9539,3.21233 2.5323,1.56942 -0.5028,2.94797 -1.8831,3.48925 -0.5252,1.31953 0.034,2.24942 -1.4677,2.04925 0.2151,1.01936 0.6133,1.29977 -0.443,1.49539 l -0.4154,1.27386 c 0.5975,0.53834 0.5991,0.51762 0,0.99693 -0.1241,0.96001 -0.013,1.92001 -0.6093,2.88002 0.6369,1.09613 0.3958,1.885 -0.443,2.46463 -4.0062,17.85177 -9.9328,35.159 -15.7505,49.04951 -6.2247,16.67487 -10.5258,32.16926 -16.0569,45.7425 l -0.7832,1.8015 -5.0129,18.40666 z"
       style="fill:#000000;stroke:none;stroke-width:0.26458332px;stroke-linecap:butt;stroke-linejoin:miter;stroke-opacity:1" />
    <path
       sodipodi:nodetypes="cccccccccccccccccccccccccccccccsccccccccccccccccccccccccccccccccccccccccccccccccccccsccccccccccccc"
       inkscape:connector-curvature="0"
       id="path1426"
       d="m 1434.022,122.66627 c -0.8484,1.82711 -1.1931,3.53034 -0.6164,5.00706 l -1.2956,0.28139 c 0.4142,1.08249 0.9541,2.04731 2.0589,2.48322 -0.4549,4.17082 0.6606,7.8265 1.5293,11.56315 l -0.7943,0.71518 -3.4303,-3.77535 c 1.5325,3.7058 3.1161,7.32278 5.4674,9.60613 -1.139,4.38952 0.6905,7.54586 1.5343,11.11162 l -1.282,0.46843 c -1.3568,-1.15161 -2.9922,-3.34505 -3.9601,-3.04161 1.7086,3.65231 4.073,4.56661 6.1133,6.83389 0.9124,5.99077 1.683,12.05188 4.05,17.32144 -1.2294,2.24685 -4.4263,-1.46609 -6.9337,-3.09037 -6.6039,-9.07024 -13.7614,-20.2029 -11.5036,-28.9273 -1.0938,-5.15712 -1.0836,-10.80187 0.09,-16.47333 0.219,-5.81458 1.3591,-11.56464 2.0387,-17.34697 -3.0142,-0.1606 -3.574,3.55501 -4.9866,5.92372 -1.5861,0.98027 -2.0531,-2.07836 -2.828,-4.02556 0.2644,2.02996 0.1725,4.11332 1.2798,6.01697 -6.1234,6.51915 -7.1879,12.79935 -9.2603,19.12717 l -1.1767,0.10365 c 0.3065,-2.07444 -0.1761,-4.74755 -1.1047,-7.759 l -0.3162,-7.25193 c -0.7144,4.60326 -2.6903,8.25776 0.8161,17.57342 -3.096,2.239 -4.9996,7.89737 -6.2181,6.05014 l -1.4677,-9.40581 c -0.098,3.22931 -0.4206,6.55212 0.1587,9.5002 l 1.0278,2.78316 c -3.6474,2.47394 -6.3405,5.38108 -7.8994,8.80304 l -0.7885,-0.50707 c 1.414,-9.78753 0.2519,-20.0937 6.9193,-33.16092 3.3573,-6.57969 8.7666,-15.64282 16.9084,-20.90905 -7.7775,-1.77463 -12.8687,-0.41745 -18.2469,0.60524 0.1938,-2.31964 2.7412,-4.57589 5.1961,-6.83463 -4.3354,1.76246 -7.1604,4.66555 -10.0375,7.52932 -5.0593,0.71022 -8.9515,3.28654 -13.0378,5.55251 0.1571,-1.77013 1.1402,-4.2581 1.8063,-6.47056 -2.1851,2.44347 -3.6072,4.75574 -4.0352,6.89712 -6.1502,1.95094 -10.4035,4.36403 -13.7037,7.00947 1.936,-7.98082 10.8675,-21.25538 30.2016,-27.618802 7.5986,0.61875 14.1368,1.80766 19.6362,3.55526 -1.5706,-2.11834 -4.6408,-4.10005 -8.8497,-5.97803 l 5.6758,-2.10108 c -4.1924,-1.89811 -6.6846,-1.48136 -8.7266,-0.45159 -3.6576,-2.88443 -7.2293,-5.85362 -13.3677,-6.29197 2.1173,-2.49635 4.7093,-2.68147 7.3184,-2.78347 -2.2528,-0.59947 -4.4686,-1.72664 -6.91,0.36669 -7.0502,-3.88852 -14.9899,-7.67391 -23.1748,-11.43087 11.814,-3.70431 22.4739,1.13094 33.0632,6.48833 9.5872,4.47648 12.2057,8.59946 17.0163,12.83364 l -1.6007,-4.47123 c -6.2981,-7.07276 -11.408,-14.32361 -18.9549,-21.20922 7.4081,1.59263 10.4853,8.43093 15.4655,12.96428 -5.7164,-11.50356 -9.5554,-21.80525 -12.6065,-34.05474 5.1353,7.53514 11.0411,12.43266 13.4821,21.17154 l -0.2648,-8.36473 c 2.319,4.24796 2.364,8.97043 2.9227,13.68079 l -0.06,-16.98886 c 0.1921,-8.59901 3.1585,-13.22827 12.3795,-18.88214 -1.1654,8.51333 -0.019,15.7678 2.5625,22.24092 -4.3845,7.98873 -11.652,33.61887 -2.0028,9.24253 0.3092,8.87971 0.019,19.20992 0.029,28.81487 3.2767,-10.10858 7.7113,-20.1888 17.5268,-30.13723 -4.7905,9.18625 -9.9467,18.37958 -11.4947,27.50291 3.9912,-4.82883 7.1819,-9.50684 13.1505,-14.70825 12.3169,-6.37928 24.7092,-10.60592 37.325,-8.44365 -4.2764,2.52339 -7.8735,4.85927 -9.5573,6.66689 -4.4549,-0.17464 -9.1347,0.0709 -15.0715,2.66581 5.5224,0.22296 10.6414,0.64593 14.6657,1.61173 -3.2211,2.81681 -5.5083,5.21887 -7.2138,7.36256 l -14.4616,3.82491 11.9313,-0.33403 c -4.4333,3.06989 -8.5561,6.08486 -10.9825,8.79979 l 3.8438,1.20904 -0.5271,1.353932 c 25.1657,5.95937 26.5483,13.86604 30.7723,21.54007 -2.9702,-3.64476 -8.0992,-3.27478 -12.8209,-3.66213 -1.3848,-1.52202 -2.643,-3.0966 -5.0216,-4.20575 2.7564,2.5143 3.7593,4.18929 2.7405,4.89658 -3.953,-1.87394 -8.4993,-1.6767 -12.9507,-1.81059 -3.0404,-2.91007 -6.0354,-5.83901 -11.3891,-7.7881 3.5803,3.1405 6.5028,6.19428 7.6617,9.01559 -4.7628,0.20804 -11.7462,-3.47936 -17.6992,-5.35931 6.0599,2.73367 10.0353,7.37335 14.9695,10.17074 16.8659,9.56203 25.4303,34.64864 28.5856,44.55614 -3.8834,-3.29057 -7.1337,-6.70708 -12.4767,-9.70732 -1.754,-5.43554 -3.8245,-10.89324 -6.6326,-16.40258 1.0858,3.97607 2.8406,8.42822 2.8322,11.62566 -3.7268,-3.97725 -5.5494,-8.48025 -11.4618,-11.85405 -0.3509,-5.10562 -2.5908,-10.99142 -6.0382,-17.37588 1.3361,4.54616 3.2204,9.28187 2.8692,13.24461 l -2.2105,-1.71475 c 2.1875,4.98872 5.1423,10.46528 4.2427,13.49114 l -8.6113,-17.66885 c 0.4489,2.53033 3.1734,7.4503 0.9277,7.15068 -1.8566,-5.06933 -2.8779,-10.24572 -6.3663,-15.10589 z"
       style="fill:#000000;stroke:none;stroke-width:0.28323698px;stroke-linecap:butt;stroke-linejoin:miter;stroke-opacity:1" />
    <path
       style="fill:#000000;stroke:none;stroke-width:0.28323698px;stroke-linecap:butt;stroke-linejoin:miter;stroke-opacity:1"
       d="m 1532.4861,147.70222 c -1.8482,0.80135 -3.2377,1.84495 -3.7883,3.3316 l -1.155,-0.65076 c -0.41,1.08407 -0.6478,2.16382 -0.112,3.22375 -3.1118,2.81414 -4.7078,6.28704 -6.5421,9.65639 l -1.0689,0.006 -0.054,-5.1007 c -1.3178,3.78747 -2.5383,7.54255 -2.299,10.8113 -3.7683,2.52288 -4.4991,6.09716 -6.2383,9.32234 l -1.2693,-0.50204 c -0.2484,-1.76224 -0.013,-4.48802 -0.9375,-4.90457 -1.1506,3.86456 0.01,6.11909 0.026,9.1692 -3.2997,5.08268 -6.7521,10.12367 -8.4857,15.63415 -2.4118,0.86182 -2.333,-4.03716 -3.127,-6.91722 1.0937,-11.16625 3.1444,-24.24144 10.6296,-29.25978 2.6101,-4.58033 6.3693,-8.79132 11.0157,-12.24885 4.028,-4.19907 8.7014,-7.73781 13.0521,-11.60674 -2.1455,-2.12321 -5.0332,0.28107 -7.6629,1.11212 -1.8367,-0.32167 -0.1528,-2.91741 0.5623,-4.88737 -1.1516,1.69249 -2.6048,3.18811 -3.0426,5.34642 -8.9081,0.80149 -13.8772,4.78661 -19.6312,8.13746 l -0.9482,-0.70464 c 1.6078,-1.34629 3.0237,-3.66437 4.3313,-6.53168 l 4.5834,-5.62876 c -3.5932,2.96471 -7.4984,4.38216 -11.0696,13.67322 -3.8014,-0.38466 -8.9843,2.57815 -8.667,0.3881 l 5.1544,-8.00349 c -2.2193,2.34801 -4.6688,4.61626 -6.1953,7.20404 l -1.0817,2.76266 c -4.3695,-0.57553 -8.3138,-0.19313 -11.7529,1.32768 l -0.2522,-0.9029 c 7.5613,-6.37354 13.5425,-14.8466 27.2089,-20.17923 6.8814,-2.68512 16.9466,-5.86204 26.53,-4.38596 -4.6318,-6.49489 -9.338,-8.86447 -14.0363,-11.67464 1.6865,-1.60441 5.0894,-1.59731 8.4249,-1.65349 -4.4108,-1.56439 -8.451,-1.27269 -12.504,-1.04502 -4.2523,-2.83172 -8.8728,-3.49347 -13.4321,-4.51611 1.2939,-1.2182 3.682,-2.42384 5.6501,-3.6343 -3.2567,0.37355 -5.856,1.15615 -7.599,2.47171 -5.892,-2.62966 -10.6739,-3.6534 -14.8979,-3.87 6.7506,-4.676652 22.2465,-8.659482 40.9221,-0.56474 5.2664,5.5123 9.3616,10.74597 12.3093,15.70665 0.2343,-2.62665 -0.7427,-6.14783 -2.6395,-10.34827 l 5.6374,2.20221 c -1.8711,-4.20452 -4.0103,-5.54944 -6.2204,-6.13709 -0.816,-4.586102 -1.5114,-9.178412 -5.8067,-13.585572 3.2411,-0.4581 5.3009,1.12622 7.3182,2.78399 -1.2849,-1.94512 -2.1915,-4.25999 -5.4068,-4.31836 -2.6837,-7.5911 -6.1004,-15.69625 -9.7193,-23.94312 11.2893,5.08374 16.0409,15.78118 20.3927,26.82187 4.1884,9.716472 3.4048,14.537422 4.1853,20.898332 l 1.7755,-4.40471 c -0,-9.470522 0.9955,-18.284352 -0.067,-28.444952 4.4769,6.11342 2.2315,13.26812 2.9398,19.96529 3.3739,-12.39461 7.3519,-22.64342 13.2132,-33.82396 -1.1708,9.04316 -0.013,16.62756 -3.9968,24.77953 l 5.3613,-6.42613 c -1.0904,4.71531 -4.1953,8.27387 -6.9084,12.16472 l 11.2463,-12.73368 c 5.8584,-6.29752 11.1515,-7.78499 21.799,-5.88127 -6.5288,5.5866 -10.4935,11.76906 -12.8666,18.32143 -8.5854,3.05524 -31.0495,17.376062 -7.6391,5.574962 -5.6704,6.84038 -12.7525,14.36646 -19.1287,21.54966 9.1665,-5.37545 19.1793,-9.96015 33.1252,-10.8702 -9.6847,3.68017 -19.6472,7.12264 -26.8673,12.91075 6.1914,-0.95556 11.6846,-2.33038 19.6011,-2.25019 13.4429,3.41926 25.5114,8.49702 33.5009,18.4971 -4.8723,-0.95656 -9.1126,-1.60187 -11.572,-1.37025 -3.2127,-3.09123 -6.8726,-6.0179 -13.0332,-8.02465 3.9782,3.8368 7.522,7.55494 9.8871,10.95109 -4.2788,-0.036 -7.5842,0.23876 -10.2833,0.70704 l -13.3477,-6.75322 9.137,7.67995 c -5.3528,-0.65252 -10.437,-1.13974 -14.0544,-0.72375 l 2.0685,3.45798 -1.2936,0.66135 c 14.8432,21.17797 10.6215,28.00471 8.6775,36.54601 0.2029,-4.69739 -3.8753,-7.82965 -7.146,-11.25715 -0.023,-2.05755 0.083,-4.07028 -0.9569,-6.47984 0.3886,3.71057 0.025,5.62864 -1.2066,5.48 -1.7082,-4.02734 -5.2363,-6.90142 -8.4734,-9.95987 -0.3378,-4.19508 -0.6291,-8.37406 -3.334,-13.38846 0.588,4.72604 0.7422,8.95014 -0.2669,11.82841 -3.6971,-3.00992 -6.4644,-10.40628 -9.6631,-15.76737 2.7112,6.07 2.5981,12.17883 4.4257,17.54826 6.2473,18.35382 -4.0259,42.79047 -8.2528,52.29035 -0.7148,-5.03962 -0.8728,-9.75257 -2.8711,-15.54534 2.3019,-5.22713 4.382,-10.68118 5.9453,-16.66398 -1.8312,3.69253 -3.4789,8.1854 -5.6102,10.56893 -0.1414,-5.44863 1.4895,-10.02455 -0.6861,-16.47487 3.131,-4.04809 5.3691,-9.93462 7.0363,-16.99618 -2.023,4.28485 -3.7625,9.07565 -6.6585,11.80319 l -0.5121,-2.75037 c -1.6809,5.18143 -3.1129,11.23725 -5.7961,12.90027 l 5.3084,-18.92522 c -1.3462,2.18905 -2.5803,7.67591 -4.0592,5.95953 1.9819,-5.02167 4.659,-9.56823 5.2826,-15.51811 z"
       id="path1428"
       inkscape:connector-curvature="0"
       sodipodi:nodetypes="cccccccccccccccccccccccccccccccsccccccccccccccccccccccccccccccccccccccccccccccccccccsccccccccccccc" />
  </g>
</svg>
