<?xml version="1.0" encoding="UTF-8" standalone="no"?>
<!-- Created with Inkscape (http://www.inkscape.org/) -->

<svg
   xmlns:dc="http://purl.org/dc/elements/1.1/"
   xmlns:cc="http://creativecommons.org/ns#"
   xmlns:rdf="http://www.w3.org/1999/02/22-rdf-syntax-ns#"
   xmlns:svg="http://www.w3.org/2000/svg"
   xmlns="http://www.w3.org/2000/svg"
   xmlns:sodipodi="http://sodipodi.sourceforge.net/DTD/sodipodi-0.dtd"
   xmlns:inkscape="http://www.inkscape.org/namespaces/inkscape"
   width="77.090332mm"
   height="77.090317mm"
   viewBox="0 0 77.090332 77.090317"
   version="1.1"
   id="svg2830"
   inkscape:version="0.92.4 (5da689c313, 2019-01-14)"
   sodipodi:docname="github-logo.svg">
  <defs
     id="defs2824" />
  <sodipodi:namedview
     id="base"
     pagecolor="#ffffff"
     bordercolor="#666666"
     borderopacity="1.0"
     inkscape:pageopacity="0.0"
     inkscape:pageshadow="2"
     inkscape:zoom="1.1074219"
     inkscape:cx="55.694511"
     inkscape:cy="164.88722"
     inkscape:document-units="mm"
     inkscape:current-layer="layer1"
     showgrid="false"
     inkscape:window-width="1920"
     inkscape:window-height="1017"
     inkscape:window-x="-8"
     inkscape:window-y="-8"
     inkscape:window-maximized="1" />
  <metadata
     id="metadata2827">
    <rdf:RDF>
      <cc:Work
         rdf:about="">
        <dc:format>image/svg+xml</dc:format>
        <dc:type
           rdf:resource="http://purl.org/dc/dcmitype/StillImage" />
        <dc:title></dc:title>
      </cc:Work>
    </rdf:RDF>
  </metadata>
  <g
     inkscape:label="Livello 1"
     inkscape:groupmode="layer"
     id="layer1"
     transform="translate(-82.11816,-111.15203)">
    <rect
       style="opacity:1;fill:#ffffff;fill-opacity:1;stroke:none;stroke-width:0.1;stroke-linecap:round;stroke-linejoin:round;stroke-miterlimit:4;stroke-dasharray:none;stroke-opacity:1;paint-order:stroke fill markers"
       id="rect3390"
       width="77.090324"
       height="77.090317"
       x="82.118156"
       y="111.15203" />
    <path
       style="fill:#000000;stroke-width:0.13766131"
       d="m 82.11816,149.69721 v -38.54518 h 38.54517 38.54516 v 38.54518 38.54514 H 120.66333 82.11816 Z m 30.56357,27.59965 c 0.22113,-0.11433 0.46584,-0.32711 0.5438,-0.47277 0.0844,-0.15772 0.14175,-1.44413 0.14175,-3.18084 v -2.91596 l -0.37857,0.0914 c -0.20822,0.0503 -1.18389,0.12576 -2.16817,0.16769 -2.06756,0.0881 -3.12611,-0.0972 -4.49123,-0.78632 -1.3084,-0.66047 -2.04295,-1.49609 -2.94385,-3.34883 -0.84763,-1.74315 -1.6492,-2.74918 -2.95424,-3.70785 -0.41868,-0.30759 -0.836709,-0.65567 -0.928944,-0.77354 -0.799534,-1.02166 1.286164,-1.31769 2.968104,-0.4212 1.0125,0.53965 1.9268,1.39726 2.5826,2.42241 1.02875,1.6082 2.07826,2.45917 3.55739,2.88434 1.59854,0.45955 4.89038,-0.0853 4.89747,-0.81054 0.005,-0.55902 0.65555,-2.14682 1.16076,-2.83504 0.57972,-0.78976 0.68949,-0.69238 -1.09483,-0.97096 -2.31645,-0.36164 -4.61864,-1.1839 -6.19393,-2.21225 -3.30751,-2.15917 -4.93884,-5.44287 -5.24795,-10.56346 -0.19333,-3.20263 0.62438,-6.0091 2.39316,-8.2137 l 0.53422,-0.66584 -0.25116,-0.90579 c -0.34418,-1.24118 -0.33635,-3.43918 0.0175,-4.91508 0.41857,-1.74576 0.48659,-1.84722 1.23879,-1.84722 1.40296,0 3.62471,0.80875 5.83684,2.12465 l 1.46214,0.86976 1.06882,-0.24619 c 2.17067,-0.50004 3.26944,-0.60851 6.1623,-0.60851 2.89285,0 3.99162,0.10847 6.16229,0.60851 l 1.06882,0.24619 1.46214,-0.86976 c 2.21212,-1.3159 4.43388,-2.12465 5.83684,-2.12465 0.7522,0 0.82021,0.10146 1.23879,1.84722 0.35385,1.4759 0.36168,3.6739 0.0175,4.91508 l -0.25116,0.90579 0.53422,0.66584 c 2.20078,2.74304 2.89197,6.32595 2.09692,10.86985 -0.50305,2.87504 -1.8723,5.44016 -3.75607,7.03658 -1.69237,1.4342 -4.38186,2.56338 -7.18307,3.01586 -0.795,0.12842 -1.52432,0.25626 -1.62071,0.28411 -0.11677,0.0339 0.005,0.31583 0.36623,0.8453 0.29782,0.43709 0.6849,1.19731 0.86019,1.68945 0.30617,0.85959 0.32155,1.10182 0.39091,6.1568 0.0702,5.1157 0.0803,5.27003 0.36174,5.55129 0.70103,0.70037 1.9167,0.42662 5.21692,-1.17479 4.64928,-2.25597 8.48432,-5.60257 11.38802,-9.93753 1.08308,-1.61695 2.73221,-4.9913 3.33511,-6.82413 1.9104,-5.80766 1.90788,-12.03815 -0.007,-17.85805 -3.581,-10.88251 -13.26017,-18.56237 -24.81422,-19.68859 -3.96397,-0.38638 -7.87554,0.0676 -11.88304,1.3792 -10.82192,3.54179 -18.486516,13.08896 -19.652913,24.48001 -0.383051,3.74083 0.08284,7.91728 1.299798,11.6522 0.604358,1.85482 2.24454,5.22181 3.341403,6.85934 3.399343,5.07494 8.356762,8.99644 14.047062,11.11183 1.21271,0.45079 1.66521,0.49113 2.23069,0.19869 z m -1.85828,-8.65634 c 0.22262,-0.16276 0.2344,-0.22489 0.0783,-0.41297 -0.10106,-0.12179 -0.36394,-0.2214 -0.58419,-0.2214 -0.49711,0 -0.68326,0.37306 -0.31903,0.6394 0.32275,0.23598 0.49677,0.23491 0.82493,-0.005 z m 2.19599,-0.3062 c 0.3212,-0.3212 0.18669,-0.53465 -0.33694,-0.53465 -0.53851,0 -0.89748,0.40241 -0.55417,0.62129 0.30731,0.19588 0.64101,0.16348 0.89111,-0.0866 z m -4.42206,-0.11772 c 0.10666,-0.27791 -0.27124,-0.62342 -0.68188,-0.62342 -0.39707,0 -0.57107,0.329 -0.32854,0.6212 0.21898,0.26386 0.90944,0.26541 1.01042,0 z m -2.11317,-1.21537 c 0,-0.40342 -0.24357,-0.647 -0.64701,-0.647 -0.23861,0 -0.31662,0.078 -0.31662,0.3166 0,0.40343 0.24357,0.64701 0.64701,0.64701 0.23861,0 0.31662,-0.078 0.31662,-0.31661 z m -1.53954,-1.7 c -0.0541,-0.45253 -0.44373,-0.73567 -0.68305,-0.49636 -0.24478,0.24479 0.0696,0.86105 0.43918,0.86105 0.23009,0 0.27873,-0.0728 0.24387,-0.36469 z m -1.07602,-1.47241 c 0,-0.10184 -0.12536,-0.29859 -0.27858,-0.43728 -0.33711,-0.30507 -0.62296,-0.10784 -0.48296,0.33326 0.10355,0.32624 0.76154,0.41612 0.76154,0.10402 z m -1.27009,-1.21605 c -0.0972,-0.29166 -0.49601,-0.46696 -0.66892,-0.29403 -0.0863,0.0863 -0.11537,0.2243 -0.0645,0.30662 0.1269,0.20533 0.80219,0.19375 0.73341,-0.0126 z"
       id="path2822"
       inkscape:connector-curvature="0" />
  </g>
</svg>
