<?xml version="1.0" encoding="UTF-8" standalone="no"?>
<!-- Created with Inkscape (http://www.inkscape.org/) -->

<svg
   xmlns:dc="http://purl.org/dc/elements/1.1/"
   xmlns:cc="http://creativecommons.org/ns#"
   xmlns:rdf="http://www.w3.org/1999/02/22-rdf-syntax-ns#"
   xmlns:svg="http://www.w3.org/2000/svg"
   xmlns="http://www.w3.org/2000/svg"
   xmlns:sodipodi="http://sodipodi.sourceforge.net/DTD/sodipodi-0.dtd"
   xmlns:inkscape="http://www.inkscape.org/namespaces/inkscape"
   width="58.389809mm"
   height="74.297218mm"
   viewBox="0 0 58.389809 74.297219"
   version="1.1"
   id="svg2830"
   inkscape:version="0.92.4 (5da689c313, 2019-01-14)"
   sodipodi:docname="stackoverflow-logo.svg">
  <defs
     id="defs2824" />
  <sodipodi:namedview
     id="base"
     pagecolor="#ffffff"
     bordercolor="#666666"
     borderopacity="1.0"
     inkscape:pageopacity="0.0"
     inkscape:pageshadow="2"
     inkscape:zoom="1.566131"
     inkscape:cx="-47.808966"
     inkscape:cy="106.01919"
     inkscape:document-units="mm"
     inkscape:current-layer="layer1"
     showgrid="false"
     inkscape:window-width="1920"
     inkscape:window-height="1017"
     inkscape:window-x="-8"
     inkscape:window-y="-8"
     inkscape:window-maximized="1" />
  <metadata
     id="metadata2827">
    <rdf:RDF>
      <cc:Work
         rdf:about="">
        <dc:format>image/svg+xml</dc:format>
        <dc:type
           rdf:resource="http://purl.org/dc/dcmitype/StillImage" />
        <dc:title></dc:title>
      </cc:Work>
    </rdf:RDF>
  </metadata>
  <g
     inkscape:label="Livello 1"
     inkscape:groupmode="layer"
     id="layer1"
     transform="translate(-82.054297,-111.10364)">
    <g
       id="g3407"
       transform="matrix(0.85501551,0,0,0.85501551,5.8491052,10.826212)">
      <path
         style="fill:#bbbaba;stroke-width:0.17456457"
         d="m 89.321519,203.83952 c -0.277137,-0.51784 -0.249016,-34.96082 0.02877,-35.23861 0.292386,-0.29238 5.223856,-0.29238 5.516241,0 0.159566,0.15957 0.209477,3.66586 0.209477,14.7158 0,11.04993 0.04991,14.55622 0.209478,14.71579 0.304269,0.30427 44.139875,0.30427 44.444145,0 0.15953,-0.15954 0.20947,-3.63737 0.20947,-14.58762 0,-9.57739 0.0603,-14.49088 0.18071,-14.71579 0.16613,-0.31042 0.38857,-0.33765 2.75812,-0.33765 1.7719,0 2.64288,0.0655 2.78689,0.20947 0.30387,0.30387 0.30387,35.06292 0,35.36679 -0.16118,0.16118 -6.65924,0.20947 -28.18604,0.20947 -27.480942,0 -27.979756,-0.006 -28.157261,-0.33765 z m 10.816861,-11.53274 c -0.323888,-0.32389 -0.349128,-0.58188 -0.349128,-3.56867 0,-3.1291 0.01089,-3.22718 0.387968,-3.4913 0.34452,-0.2413 2.24096,-0.27174 16.93277,-0.27174 16.31204,0 16.5497,0.005 16.89392,0.34913 0.32326,0.32327 0.34913,0.58188 0.34913,3.49129 0,2.90941 -0.0259,3.16802 -0.34913,3.49129 -0.34423,0.34423 -0.58188,0.34913 -16.93277,0.34913 -16.35088,0 -16.58853,-0.005 -16.93276,-0.34913 z m 32.9927,-9.17541 c -0.14401,-0.0353 -7.25315,-0.69685 -15.79809,-1.47014 -8.54493,-0.77328 -15.78902,-1.44686 -16.09797,-1.49683 -0.87133,-0.14093 -1.15393,-0.52911 -1.03213,-1.41772 0.0568,-0.41427 0.18593,-1.67645 0.28698,-2.80484 0.25174,-2.81085 0.315,-3.13675 0.63251,-3.25859 0.22271,-0.0855 22.68544,1.87431 31.19895,2.72196 2.97688,0.2964 2.83416,0.0806 2.48768,3.76156 -0.15477,1.64437 -0.28261,3.09369 -0.28408,3.22072 -0.006,0.5413 -0.70304,0.91316 -1.39385,0.74388 z m -3.404,-11.18221 c -2.59229,-0.71379 -9.70143,-2.63373 -15.7981,-4.26654 -11.19568,-2.99841 -11.83397,-3.21188 -11.60744,-3.88204 0.039,-0.11532 0.39077,-1.42726 0.78176,-2.91542 0.85637,-3.25951 0.94809,-3.49129 1.38158,-3.49129 0.18645,0 2.05379,0.4659 4.14965,1.03535 2.09586,0.56944 9.26614,2.49736 15.93396,4.28426 6.66782,1.78691 12.22552,3.33375 12.35045,3.43743 0.12492,0.10367 0.22713,0.36757 0.22713,0.58643 0,0.58212 -1.51018,5.99634 -1.75474,6.29102 -0.11452,0.13799 -0.37535,0.24362 -0.57961,0.23475 -0.20427,-0.009 -2.49236,-0.60016 -5.08464,-1.31395 z m 6.02247,-8.82751 c -0.81609,-0.4897 -7.10041,-4.20444 -13.96516,-8.25497 -6.86475,-4.05054 -12.65812,-7.4752 -12.87414,-7.61036 -0.21602,-0.13516 -0.39117,-0.40359 -0.38923,-0.59652 0.002,-0.19293 0.74016,-1.60765 1.64047,-3.14382 1.3241,-2.25928 1.71539,-2.80052 2.04759,-2.83221 0.50004,-0.0477 29.18869,16.85942 29.25871,17.24308 0.0416,0.22803 -2.75216,5.20945 -3.27492,5.83933 -0.35716,0.43036 -0.88329,0.29156 -2.44332,-0.64453 z m 5.71664,-7.85086 c -0.6214,-0.89653 -4.68683,-6.85391 -9.03428,-13.2386 -4.34745,-6.3847 -8.13623,-11.93411 -8.41951,-12.33201 -0.28329,-0.3979 -0.48738,-0.86923 -0.45355,-1.04739 0.0595,-0.3135 4.91773,-3.767 5.64095,-4.00994 0.25936,-0.0871 0.46639,0.0316 0.82993,0.47573 1.07228,1.31013 18.6376,27.29845 18.6376,27.57479 0,0.28737 -5.14307,3.96011 -5.78505,4.13119 -0.20271,0.054 -0.61602,-0.39948 -1.41609,-1.55377 z m 8.61501,-3.18024 c -0.21265,-0.25622 -5.7741,-31.91813 -5.77654,-32.88642 -0.002,-0.75216 0.13245,-0.80196 3.79871,-1.40804 2.23524,-0.36951 3.07997,-0.44888 3.26744,-0.30701 0.17554,0.13285 1.00547,4.51434 2.71455,14.33108 1.35394,7.77685 2.64062,15.15907 2.85928,16.40493 0.42107,2.39903 0.41498,2.78981 -0.0463,2.97775 -0.2876,0.11716 -6.039,1.12866 -6.41759,1.12866 -0.10976,0 -0.28954,-0.10843 -0.39952,-0.24095 z"
         id="path3411"
         inkscape:connector-curvature="0" />
      <path
         style="fill:#f28229;fill-opacity:1;stroke:#f28229;stroke-width:0.76590663;stroke-miterlimit:4;stroke-dasharray:none;stroke-opacity:1"
         d="m 100.23813,192.20703 c -0.22891,-0.22891 -0.273872,-0.78515 -0.271641,-3.36037 0.0014,-1.69733 0.06669,-3.18695 0.144941,-3.31027 0.19973,-0.31477 33.66332,-0.40718 33.85764,-0.0935 0.0702,0.11328 0.12048,1.67123 0.11176,3.46211 -0.0127,2.6154 -0.0648,3.28712 -0.26458,3.41357 -0.14319,0.0906 -7.26258,0.15856 -16.77628,0.1601 -14.79457,0.002 -16.55628,-0.0261 -16.80184,-0.27164 z m 16.13476,-10.82129 c -8.49693,-0.79732 -15.50512,-1.45492 -15.57375,-1.46135 -0.37772,-0.0354 -0.43459,-0.75822 -0.2138,-2.71744 0.12983,-1.15213 0.23949,-2.49217 0.24368,-2.97788 0.0144,-1.66449 -1.435716,-1.64814 14.84561,-0.16742 19.97738,1.81687 18.93858,1.70158 19.09899,2.11962 0.1009,0.26292 -0.32293,5.49521 -0.51081,6.30625 -0.0839,0.36235 -0.18202,0.39104 -1.26597,0.37033 -0.64625,-0.0124 -8.12702,-0.6748 -16.62395,-1.47211 z m 15.36168,-9.10399 c -1.58418,-0.43835 -8.77187,-2.37925 -15.97266,-4.31312 -12.70374,-3.41177 -13.09372,-3.52892 -13.13864,-3.94692 -0.0549,-0.51124 1.42254,-6.06642 1.68262,-6.3265 0.12347,-0.12347 2.76917,0.51782 8.43642,2.04491 4.5411,1.22363 11.63436,3.12416 15.76281,4.22339 4.12846,1.09923 7.7223,2.0834 7.98633,2.18705 0.26528,0.10414 0.48006,0.32315 0.48006,0.48952 0,0.34799 -1.49925,6.03258 -1.65935,6.29162 -0.1637,0.26487 -0.47753,0.20785 -3.57759,-0.64995 z m -5.24904,-14.86205 c -5.994,-3.53818 -12.42999,-7.33464 -14.30219,-8.4366 -2.38657,-1.40469 -3.41551,-2.10375 -3.44249,-2.33881 -0.0487,-0.42422 3.11667,-5.72967 3.45763,-5.79534 0.2451,-0.0472 28.46382,16.50021 28.93379,16.96673 0.19411,0.19267 -0.05,0.71661 -1.46011,3.13421 -1.14148,1.95701 -1.79016,2.90287 -1.99081,2.90287 -0.1637,0 -5.20182,-2.89488 -11.19582,-6.43306 z m 15.76707,-1.37991 c -0.54231,-0.69896 -17.71303,-25.85588 -18.26729,-26.7635 -0.32995,-0.54031 -0.32987,-0.54118 0.0873,-0.9393 0.79022,-0.75414 5.182,-3.58958 5.41809,-3.49803 0.3751,0.14544 19.04311,27.65752 18.94326,27.91773 -0.0782,0.20384 -4.46448,3.289 -5.34936,3.76258 -0.26831,0.14359 -0.41347,0.0599 -0.83199,-0.47948 z m 8.00222,-4.12493 c -0.18831,-0.22691 -5.77704,-31.86105 -5.77704,-32.70008 0,-0.21307 0.13747,-0.46051 0.30549,-0.54987 0.55344,-0.29435 6.31084,-1.15872 6.49452,-0.97503 0.0939,0.0939 1.23671,6.29662 2.53966,13.78392 1.30296,7.48729 2.56251,14.68549 2.799,15.99599 0.45864,2.54154 0.52403,3.38646 0.27402,3.54098 -0.11001,0.068 -6.13901,1.14616 -6.40917,1.14616 -0.0141,0 -0.11598,-0.10893 -0.22648,-0.24207 z"
         id="path3409"
         inkscape:connector-curvature="0" />
    </g>
  </g>
</svg>
