<?xml version="1.0" encoding="UTF-8" standalone="no"?>
<!-- Created with Inkscape (http://www.inkscape.org/) -->

<svg
   xmlns:dc="http://purl.org/dc/elements/1.1/"
   xmlns:cc="http://creativecommons.org/ns#"
   xmlns:rdf="http://www.w3.org/1999/02/22-rdf-syntax-ns#"
   xmlns:svg="http://www.w3.org/2000/svg"
   xmlns="http://www.w3.org/2000/svg"
   xmlns:xlink="http://www.w3.org/1999/xlink"
   xmlns:sodipodi="http://sodipodi.sourceforge.net/DTD/sodipodi-0.dtd"
   xmlns:inkscape="http://www.inkscape.org/namespaces/inkscape"
   width="1920"
   height="1080"
   viewBox="0 0 508.00001 285.74999"
   version="1.1"
   id="svg8"
   inkscape:version="0.92.4 (5da689c313, 2019-01-14)"
   sodipodi:docname="trees.svg">
  <defs
     id="defs2">
    <linearGradient
       inkscape:collect="always"
       id="linearGradient999">
      <stop
         style="stop-color:#4a89f0;stop-opacity:1;"
         offset="0"
         id="stop995" />
      <stop
         style="stop-color:#4a89f0;stop-opacity:0;"
         offset="1"
         id="stop997" />
    </linearGradient>
    <linearGradient
       inkscape:collect="always"
       id="linearGradient991">
      <stop
         style="stop-color:#003f9f;stop-opacity:1;"
         offset="0"
         id="stop987" />
      <stop
         style="stop-color:#003f9f;stop-opacity:0.52631581"
         offset="1"
         id="stop989" />
    </linearGradient>
    <clipPath
       clipPathUnits="userSpaceOnUse"
       id="clipPath845">
      <rect
         y="402.83334"
         x="1.388879e-05"
         height="285.75"
         width="508"
         id="rect847"
         style="opacity:1;fill:#000000;fill-opacity:1;stroke:none;stroke-width:0.56757522;stroke-linecap:square;stroke-linejoin:miter;stroke-miterlimit:4;stroke-dasharray:none;stroke-opacity:1;paint-order:normal" />
    </clipPath>
    <clipPath
       clipPathUnits="userSpaceOnUse"
       id="clipPath862">
      <rect
         y="453.38486"
         x="1.388879e-05"
         height="285.75"
         width="508"
         id="rect864"
         style="opacity:1;fill:#000000;fill-opacity:1;stroke:none;stroke-width:0.56757522;stroke-linecap:square;stroke-linejoin:miter;stroke-miterlimit:4;stroke-dasharray:none;stroke-opacity:1;paint-order:normal" />
    </clipPath>
    <clipPath
       clipPathUnits="userSpaceOnUse"
       id="clipPath997">
      <circle
         r="111.49027"
         cy="-580.21411"
         cx="334.56305"
         id="circle999"
         style="opacity:1;fill:#e9dabd;fill-opacity:1;stroke:none;stroke-width:0.26458332;stroke-linecap:square;stroke-linejoin:miter;stroke-miterlimit:4;stroke-dasharray:none;stroke-opacity:1;paint-order:normal" />
    </clipPath>
    <clipPath
       clipPathUnits="userSpaceOnUse"
       id="clipPath1131">
      <rect
         y="11.250019"
         x="1.3888889e-05"
         height="285.75"
         width="508"
         id="rect1133"
         style="opacity:1;fill:#241f1c;fill-opacity:1;stroke:none;stroke-width:0.56757522;stroke-linecap:square;stroke-linejoin:miter;stroke-miterlimit:4;stroke-dasharray:none;stroke-opacity:1;paint-order:normal" />
    </clipPath>
    <radialGradient
       inkscape:collect="always"
       xlink:href="#linearGradient991"
       id="radialGradient993"
       cx="282.73108"
       cy="244.91858"
       fx="282.73108"
       fy="244.91858"
       r="358.87223"
       gradientUnits="userSpaceOnUse"
       gradientTransform="matrix(2.1180967,0.09945683,-0.08279791,1.7633174,-259.40561,-251.96729)" />
    <radialGradient
       inkscape:collect="always"
       xlink:href="#linearGradient999"
       id="radialGradient1001"
       cx="254"
       cy="445.73917"
       fx="254"
       fy="445.73917"
       r="358.87223"
       gradientUnits="userSpaceOnUse"
       gradientTransform="matrix(0.99997551,-0.00699805,0.02095263,2.9939915,-9.333186,-887.0226)" />
  </defs>
  <sodipodi:namedview
     id="base"
     pagecolor="#ffffff"
     bordercolor="#666666"
     borderopacity="1.0"
     inkscape:pageopacity="0.0"
     inkscape:pageshadow="2"
     inkscape:zoom="0.4222459"
     inkscape:cx="871.4067"
     inkscape:cy="538.46563"
     inkscape:document-units="mm"
     inkscape:current-layer="layer1"
     showgrid="false"
     inkscape:window-width="1920"
     inkscape:window-height="1017"
     inkscape:window-x="-8"
     inkscape:window-y="-8"
     inkscape:window-maximized="1"
     units="px"
     inkscape:showpageshadow="true"
     borderlayer="false"
     inkscape:pagecheckerboard="false"
     inkscape:snap-page="true"
     showguides="true"
     inkscape:guide-bbox="true"
     inkscape:snap-bbox="true"
     inkscape:bbox-paths="true"
     inkscape:bbox-nodes="true"
     inkscape:snap-bbox-edge-midpoints="true"
     inkscape:snap-bbox-midpoints="true"
     inkscape:snap-intersection-paths="true"
     inkscape:object-paths="true"
     inkscape:snap-smooth-nodes="true"
     inkscape:snap-midpoints="true"
     inkscape:snap-object-midpoints="true"
     inkscape:snap-center="true"
     inkscape:snap-nodes="true"
     inkscape:snap-others="true" />
  <metadata
     id="metadata5">
    <rdf:RDF>
      <cc:Work
         rdf:about="">
        <dc:format>image/svg+xml</dc:format>
        <dc:type
           rdf:resource="http://purl.org/dc/dcmitype/StillImage" />
        <dc:title />
      </cc:Work>
    </rdf:RDF>
  </metadata>
  <g
     inkscape:label="Livello 1"
     inkscape:groupmode="layer"
     id="layer1"
     transform="translate(0,-11.25001)">
    <ellipse
       style="opacity:1;fill:url(#radialGradient1001);fill-opacity:1;stroke:url(#radialGradient993);stroke-width:105.83333588;stroke-linecap:round;stroke-linejoin:round;stroke-miterlimit:4;stroke-dasharray:none;stroke-opacity:1;paint-order:stroke fill markers"
       id="path983"
       cx="254"
       cy="445.73917"
       r="305.95557" />
    <rect
       style="opacity:1;fill:#fdf7bc;fill-opacity:0.3157895;stroke:none;stroke-width:1.32291663;stroke-linecap:round;stroke-linejoin:round;stroke-miterlimit:4;stroke-dasharray:none;stroke-opacity:0.52631579;paint-order:stroke fill markers"
       id="rect1130"
       width="35.716747"
       height="13.785411"
       x="558.91199"
       y="557.82623" />
    <rect
       style="opacity:1;fill:#fdf7bc;fill-opacity:0.3157895;stroke:none;stroke-width:1.26533854;stroke-linecap:round;stroke-linejoin:round;stroke-miterlimit:4;stroke-dasharray:none;stroke-opacity:0.52631579;paint-order:stroke fill markers"
       id="rect1132"
       width="23.65451"
       height="32.818672"
       x="590.39911"
       y="548.34875" />
    <rect
       style="opacity:1;fill:#fdf7bc;fill-opacity:0.3157895;stroke:none;stroke-width:1.32291663;stroke-linecap:round;stroke-linejoin:round;stroke-miterlimit:4;stroke-dasharray:none;stroke-opacity:0.52631579;paint-order:stroke fill markers"
       id="rect1134"
       width="8.4592152"
       height="8.4592152"
       x="590.39911"
       y="553.59668" />
    <rect
       y="567.38208"
       x="590.39911"
       height="8.4592152"
       width="8.4592152"
       id="rect1136"
       style="opacity:1;fill:#fdf7bc;fill-opacity:0.3157895;stroke:none;stroke-width:1.32291663;stroke-linecap:round;stroke-linejoin:round;stroke-miterlimit:4;stroke-dasharray:none;stroke-opacity:0.52631579;paint-order:stroke fill markers" />
    <ellipse
       style="opacity:1;fill:#fdf7bc;fill-opacity:1;stroke:none;stroke-width:0.62746823;stroke-linecap:round;stroke-linejoin:round;stroke-miterlimit:4;stroke-dasharray:none;stroke-opacity:0.52631579;paint-order:stroke fill markers"
       id="circle1378"
       cx="390.72305"
       cy="222.97809"
       r="46.829723" />
    <path
       inkscape:connector-curvature="0"
       id="path1380"
       d="M 0,11.117728 V 296.86773 H 508 V 11.117728 Z"
       style="fill:none;stroke:#000000;stroke-width:0.26458332px;stroke-linecap:butt;stroke-linejoin:miter;stroke-opacity:1" />
    <path
       sodipodi:nodetypes="ccccccccccccccccccccccccccccccccccccccccccc"
       inkscape:connector-curvature="0"
       id="path1424"
       d="m 172.27774,279.99187 c -0.4649,-5.52688 -1.0673,-11.05375 -2.0516,-16.58062 -1.8296,-7.56405 -3.784,-14.50408 -5.4267,-23.00217 -3.465,-5.86543 -4.0582,-12.55132 -5.6395,-18.95494 -3.5113,-9.21489 -4.7323,-18.17531 -7.0494,-27.25752 -3.2795,-7.47886 -3.9582,-13.96808 -5.4196,-21.62753 l -6.1727,-27.87463 c -0.686,-5.12777 -1.2803,-10.31667 -1.5269,-15.73744 l -4.4862,-25.69864 c 4.027,7.3626 6.7325,15.29151 8.6955,23.53863 l 4.3754,18.33242 2.7139,11.57546 7.0892,32.51099 c 1.9023,7.42797 3.0516,14.60496 6.1478,22.43092 1.0953,4.03076 2.7754,8.64627 3.2123,12.01854 7.4361,18.06388 10.3631,35.59498 18.997,54.66498 h 2.6585 c 2.532,-4.48321 4.7068,-8.96643 8.6373,-13.44964 2.2925,-3.70971 3.6956,-8.2796 7.0367,-10.97514 8.0173,-17.71865 11.82,-33.95655 20.4924,-53.77882 3.6361,-10.17325 7.2949,-20.32375 11.077,-30.35097 -0.5622,-2.19431 1.2195,-4.60171 2.1221,-6.92919 -0.6017,-1.7891 0.1964,-3.57631 0.9987,-5.28702 -0.3096,-1.18208 -0.8663,-2.25828 -0.705,-3.64217 -0.873,-1.84347 -1.3433,-3.85366 -0.9713,-6.21254 -0.7904,-2.83097 -2.2488,-5.76471 0.6325,-8.03082 0.6392,-0.36991 0.9042,-1.01645 3.1569,-0.19385 1.8228,-5.36426 5.4883,-2.28234 9.0278,0.22154 1.6359,1.24335 3.0371,2.54536 3.2123,4.15388 0.401,1.42155 1.0435,2.84309 0.6092,4.26464 -1.8158,1.28782 -3.6333,2.57343 -5.9539,3.21233 2.5323,1.56942 -0.5028,2.94797 -1.8831,3.48925 -0.5252,1.31953 0.034,2.24942 -1.4677,2.04925 0.2151,1.01936 0.6133,1.29977 -0.443,1.49539 l -0.4154,1.27386 c 0.5975,0.53834 0.5991,0.51762 0,0.99693 -0.1241,0.96001 -0.013,1.92001 -0.6093,2.88002 0.6369,1.09613 0.3958,1.885 -0.443,2.46463 -4.0062,17.85177 -9.9328,35.159 -15.7505,49.04951 -6.2247,16.67487 -10.5258,32.16926 -16.0569,45.7425 l -0.7832,1.80151 -5.0129,18.40666 z"
       style="fill:#000000;stroke:none;stroke-width:0.26458332px;stroke-linecap:butt;stroke-linejoin:miter;stroke-opacity:1" />
    <path
       sodipodi:nodetypes="cccccccccccccccccccccccccccccccsccccccccccccccccccccccccccccccccccccccccccccccccccccsccccccccccccc"
       inkscape:connector-curvature="0"
       id="path1426"
       d="m 138.78524,129.49519 c -0.8484,1.82711 -1.1931,3.53034 -0.6164,5.00706 l -1.2956,0.28139 c 0.4142,1.08249 0.9541,2.04731 2.0589,2.48322 -0.4549,4.17082 0.6606,7.8265 1.5293,11.56315 l -0.7943,0.71518 -3.4303,-3.77535 c 1.5325,3.7058 3.1161,7.32278 5.4674,9.60613 -1.139,4.38952 0.6905,7.54586 1.5343,11.11162 l -1.282,0.46843 c -1.3568,-1.15161 -2.9922,-3.34505 -3.9601,-3.04161 1.7086,3.65231 4.073,4.56661 6.1133,6.83389 0.9124,5.99077 1.683,12.05188 4.05,17.32144 -1.2294,2.24685 -4.4263,-1.46609 -6.9337,-3.09037 -6.6039,-9.07024 -13.7614,-20.2029 -11.5036,-28.9273 -1.0938,-5.15712 -1.0836,-10.80187 0.09,-16.47333 0.219,-5.81458 1.3591,-11.56463 2.0387,-17.34696 -3.0142,-0.1606 -3.574,3.55501 -4.9866,5.92372 -1.5861,0.98026 -2.0531,-2.07836 -2.828,-4.02556 0.2644,2.02996 0.1725,4.11332 1.2798,6.01696 -6.1234,6.51915 -7.1879,12.79935 -9.2603,19.12717 l -1.1767,0.10365 c 0.3065,-2.07444 -0.1761,-4.74755 -1.1047,-7.759 l -0.3162,-7.25193 c -0.7144,4.60326 -2.6903,8.25776 0.8161,17.57342 -3.096,2.239 -4.9996,7.89737 -6.2181,6.05014 l -1.4677,-9.40581 c -0.098,3.22931 -0.4206,6.55212 0.1587,9.5002 l 1.0278,2.78316 c -3.6474,2.47394 -6.3405,5.38108 -7.899404,8.80304 l -0.788501,-0.50707 c 1.414005,-9.78753 0.251902,-20.0937 6.919305,-33.16092 3.3573,-6.57969 8.7666,-15.64281 16.9084,-20.90904 -7.7775,-1.77463 -12.8687,-0.41745 -18.2469,0.60524 0.1938,-2.31964 2.7412,-4.57589 5.1961,-6.83463 -4.3354,1.76246 -7.1604,4.66555 -10.037503,7.52932 -5.059301,0.71022 -8.951501,3.28654 -13.037801,5.55251 0.1571,-1.77013 1.1402,-4.2581 1.8063,-6.47056 -2.1851,2.44347 -3.6072,4.75574 -4.0352,6.89712 -6.1502,1.95094 -10.4035,4.36403 -13.7037,7.00946 1.936,-7.98081 10.8675,-21.25537 30.201604,-27.6188 7.5986,0.61875 14.1368,1.80766 19.6362,3.55526 -1.5706,-2.11833 -4.6408,-4.10005 -8.8497,-5.978027 l 5.6758,-2.10108 c -4.1924,-1.89811 -6.6846,-1.48136 -8.7266,-0.451588 -3.6576,-2.884432 -7.2293,-5.853621 -13.367704,-6.291972 2.117302,-2.496349 4.709304,-2.68147 7.318404,-2.783469 -2.2528,-0.599469 -4.468603,-1.726639 -6.910004,0.366688 -7.0502,-3.888517 -14.9899,-7.673908 -23.1748,-11.430867 11.814,-3.704313 22.4739,1.130937 33.063204,6.488329 9.5872,4.47648 12.2057,8.599458 17.0163,12.833638 l -1.6007,-4.471228 c -6.2981,-7.072759 -11.408,-14.32361 -18.9549,-21.209222 7.4081,1.59263 10.4853,8.430932 15.4655,12.964282 -5.7164,-11.50356 -9.5554,-21.805251 -12.6065,-34.054741 5.1353,7.53514 11.0411,12.43266 13.4821,21.171541 l -0.2648,-8.364731 c 2.319,4.24796 2.364,8.970431 2.9227,13.680789 l -0.06,-16.988859 c 0.1921,-8.59901 3.1585,-13.22827 12.3795,-18.88214 -1.1654,8.51333 -0.019,15.7678 2.5625,22.24092 -4.38451,7.988731 -11.652,33.618871 -2.0028,9.242531 0.3092,8.87971 0.019,19.209919 0.029,28.814866 3.2767,-10.108576 7.7113,-20.188796 17.5268,-30.137227 -4.7905,9.186251 -9.9467,18.37958 -11.4947,27.502911 3.9912,-4.828831 7.1819,-9.506839 13.1505,-14.708251 12.3169,-6.379279 24.7092,-10.605918 37.325,-8.443651 -4.2764,2.523392 -7.8735,4.859272 -9.5573,6.666892 -4.4549,-0.174641 -9.1347,0.0709 -15.0715,2.665809 5.5224,0.222962 10.6414,0.64593 14.6657,1.611731 -3.2211,2.816809 -5.5083,5.218869 -7.2138,7.36256 l -14.4616,3.824909 11.9313,-0.334028 c -4.4333,3.069889 -8.5561,6.084855 -10.9825,8.799785 l 3.8438,1.20904 -0.5271,1.35394 c 25.1657,5.95937 26.5483,13.86604 30.7723,21.54006 -2.9702,-3.64475 -8.0992,-3.27477 -12.8209,-3.66212 -1.3848,-1.52202 -2.643,-3.0966 -5.0216,-4.20575 2.7564,2.5143 3.7593,4.18929 2.7405,4.89658 -3.953,-1.87394 -8.4993,-1.6767 -12.9507,-1.81059 -3.0404,-2.91007 -6.0354,-5.83901 -11.3891,-7.7881 3.5803,3.1405 6.5028,6.19428 7.6617,9.01559 -4.7628,0.20804 -11.7462,-3.47936 -17.6992,-5.35931 6.0599,2.73367 10.0353,7.37335 14.9695,10.17073 16.8659,9.56203 25.4303,34.64864 28.5856,44.55614 -3.8834,-3.29057 -7.1337,-6.70708 -12.4767,-9.70732 -1.754,-5.43554 -3.8245,-10.89324 -6.6326,-16.40258 1.0858,3.97607 2.8406,8.42822 2.8322,11.62566 -3.7268,-3.97725 -5.5494,-8.48025 -11.4618,-11.85405 -0.3509,-5.10562 -2.5908,-10.99142 -6.0382,-17.37588 1.3361,4.54616 3.2204,9.28187 2.8692,13.24461 l -2.2105,-1.71475 c 2.1875,4.98872 5.1423,10.46528 4.2427,13.49114 l -8.6113,-17.66885 c 0.4489,2.53033 3.1734,7.4503 0.9277,7.15068 -1.8566,-5.06933 -2.8779,-10.24572 -6.3663,-15.10589 z"
       style="fill:#000000;stroke:none;stroke-width:0.28323701px;stroke-linecap:butt;stroke-linejoin:miter;stroke-opacity:1" />
    <path
       style="fill:#000000;stroke:none;stroke-width:0.28323701px;stroke-linecap:butt;stroke-linejoin:miter;stroke-opacity:1"
       d="m 237.24934,154.53114 c -1.8482,0.80135 -3.2377,1.84495 -3.7883,3.3316 l -1.155,-0.65076 c -0.41,1.08407 -0.6478,2.16382 -0.112,3.22375 -3.1118,2.81414 -4.7078,6.28704 -6.5421,9.65639 l -1.0689,0.006 -0.054,-5.1007 c -1.3178,3.78747 -2.5383,7.54255 -2.299,10.8113 -3.7683,2.52288 -4.4991,6.09716 -6.2383,9.32234 l -1.2693,-0.50204 c -0.2484,-1.76224 -0.013,-4.48802 -0.9375,-4.90457 -1.1506,3.86456 0.01,6.11909 0.026,9.1692 -3.2997,5.08268 -6.7521,10.12367 -8.4857,15.63415 -2.4118,0.86182 -2.333,-4.03716 -3.127,-6.91722 1.0937,-11.16625 3.1444,-24.24144 10.6296,-29.25978 2.6101,-4.58033 6.3693,-8.79132 11.0157,-12.24885 4.028,-4.19907 8.7014,-7.73781 13.0521,-11.60674 -2.1455,-2.12321 -5.0332,0.28107 -7.6629,1.11212 -1.8367,-0.32167 -0.1528,-2.91741 0.5623,-4.88737 -1.1516,1.69249 -2.6048,3.18811 -3.0426,5.34642 -8.9081,0.80149 -13.8772,4.78661 -19.6312,8.13746 l -0.9482,-0.70464 c 1.6078,-1.34629 3.0237,-3.66437 4.3313,-6.53168 l 4.5834,-5.62876 c -3.5932,2.96471 -7.4984,4.38216 -11.0696,13.67322 -3.8014,-0.38466 -8.9843,2.57815 -8.667,0.3881 l 5.1544,-8.00349 c -2.2193,2.34801 -4.6688,4.61626 -6.1953,7.20404 l -1.0817,2.76266 c -4.3695,-0.57553 -8.3138,-0.19313 -11.7529,1.32768 l -0.2522,-0.9029 c 7.5613,-6.37354 13.5425,-14.8466 27.2089,-20.17923 6.8814,-2.68512 16.9466,-5.86204 26.53,-4.38596 -4.6318,-6.49489 -9.338,-8.86446 -14.0363,-11.67464 1.6865,-1.60441 5.0894,-1.59731 8.4249,-1.65349 -4.4108,-1.56438 -8.451,-1.27269 -12.504,-1.04502 -4.2523,-2.83171 -8.8728,-3.49347 -13.4321,-4.5161 1.2939,-1.2182 3.682,-2.42384 5.6501,-3.63431 -3.2567,0.37355 -5.856,1.15615 -7.599,2.47172 -5.892,-2.62967 -10.6739,-3.65341 -14.8979,-3.87001 6.7506,-4.67665 22.2465,-8.65948 40.9221,-0.56474 5.2664,5.5123 9.3616,10.74597 12.3093,15.70665 0.2343,-2.62665 -0.7427,-6.14783 -2.6395,-10.34827 l 5.6374,2.20221 c -1.8711,-4.20452 -4.0103,-5.54944 -6.2204,-6.13709 -0.816,-4.5861 -1.5114,-9.17841 -5.8067,-13.585568 3.2411,-0.458102 5.3009,1.126221 7.3182,2.783989 -1.2849,-1.945119 -2.1915,-4.25999 -5.4068,-4.31836 -2.6837,-7.5911 -6.1004,-15.69625 -9.7193,-23.94312 11.2893,5.083742 16.0409,15.781182 20.3927,26.821871 4.1884,9.716468 3.4048,14.537428 4.1853,20.898328 l 1.7755,-4.40471 c 0,-9.47052 0.9955,-18.28435 -0.067,-28.444948 4.4769,6.113421 2.2315,13.268119 2.9398,19.965288 3.3739,-12.394609 7.3519,-22.643419 13.2132,-33.823959 -1.1708,9.04316 -0.013,16.62756 -3.9968,24.779531 l 5.3613,-6.426131 c -1.0904,4.715311 -4.1953,8.27387 -6.9084,12.164719 l 11.2463,-12.733679 c 5.8584,-6.29752 11.1515,-7.784989 21.799,-5.88127 -6.5288,5.586601 -10.4935,11.769061 -12.8666,18.321429 -8.5854,3.05524 -31.0495,17.37607 -7.6391,5.57496 -5.6704,6.84038 -12.7525,14.36647 -19.1287,21.54966 9.1665,-5.37544 19.1793,-9.96014 33.1252,-10.87019 -9.6847,3.68016 -19.6472,7.12263 -26.8673,12.91074 6.1914,-0.95556 11.6846,-2.33038 19.6011,-2.25019 13.4429,3.41926 25.5114,8.49702 33.5009,18.4971 -4.8723,-0.95656 -9.1126,-1.60187 -11.572,-1.37025 -3.2127,-3.09123 -6.8726,-6.0179 -13.0332,-8.02465 3.9782,3.8368 7.522,7.55494 9.8871,10.95109 -4.2788,-0.036 -7.5842,0.23876 -10.2833,0.70704 l -13.3477,-6.75322 9.137,7.67995 c -5.3528,-0.65252 -10.437,-1.13974 -14.0544,-0.72375 l 2.0685,3.45798 -1.2936,0.66135 c 14.8432,21.17797 10.6215,28.00471 8.6775,36.54601 0.2029,-4.69739 -3.8753,-7.82965 -7.146,-11.25715 -0.023,-2.05755 0.083,-4.07028 -0.9569,-6.47984 0.3886,3.71057 0.025,5.62864 -1.2066,5.48 -1.7082,-4.02734 -5.2363,-6.90142 -8.4734,-9.95987 -0.3378,-4.19508 -0.6291,-8.37406 -3.334,-13.38846 0.588,4.72604 0.7422,8.95014 -0.2669,11.82841 -3.6971,-3.00992 -6.4644,-10.40628 -9.6631,-15.76737 2.7112,6.07 2.5981,12.17883 4.4257,17.54826 6.2473,18.35382 -4.0259,42.79047 -8.2528,52.29035 -0.7148,-5.03962 -0.8728,-9.75257 -2.8711,-15.54534 2.3019,-5.22713 4.382,-10.68118 5.9453,-16.66398 -1.8312,3.69253 -3.4789,8.1854 -5.6102,10.56893 -0.1414,-5.44863 1.4895,-10.02455 -0.6861,-16.47487 3.131,-4.04809 5.3691,-9.93462 7.0363,-16.99618 -2.023,4.28485 -3.7625,9.07565 -6.6585,11.80319 l -0.5121,-2.75037 c -1.6809,5.18143 -3.1129,11.23725 -5.7961,12.90027 l 5.3084,-18.92522 c -1.3462,2.18905 -2.5803,7.67591 -4.0592,5.95953 1.9819,-5.02167 4.659,-9.56823 5.2826,-15.51811 z"
       id="path1428"
       inkscape:connector-curvature="0"
       sodipodi:nodetypes="cccccccccccccccccccccccccccccccsccccccccccccccccccccccccccccccccccccccccccccccccccccsccccccccccccc" />
  </g>
</svg>
